<svg width="16" height="13" viewBox="0 0 16 13" fill="none" xmlns="http://www.w3.org/2000/svg">
<path d="M15.333 6.74857C15.333 6.40051 15.0744 6.11287 14.7388 6.06734L14.6455 6.06107L2.56017 6.06162L6.92624 1.71338C7.19531 1.44548 7.19625 1.01018 6.92834 0.741114C6.68479 0.496512 6.30289 0.4735 6.03332 0.672621L5.95607 0.739021L0.410236 6.26102C0.37477 6.29634 0.343964 6.33456 0.317819 6.37492C0.310435 6.38706 0.302917 6.39949 0.295791 6.41217C0.289235 6.42304 0.283312 6.43433 0.277725 6.44573C0.269964 6.46233 0.26238 6.47948 0.255495 6.49698C0.249901 6.51048 0.24523 6.5236 0.240969 6.53683C0.235904 6.55323 0.230983 6.57071 0.22675 6.58846C0.223603 6.60085 0.22111 6.61277 0.218936 6.62474C0.215879 6.64255 0.213276 6.66099 0.21142 6.67964C0.209816 6.69386 0.208851 6.70796 0.208318 6.72206C0.20818 6.73062 0.208007 6.73957 0.208007 6.74857L0.208352 6.7752C0.208878 6.7887 0.2098 6.80218 0.211117 6.81563L0.208007 6.74857C0.208007 6.79195 0.212025 6.8344 0.219711 6.87556C0.221493 6.88539 0.223617 6.89548 0.225968 6.90552C0.230852 6.92622 0.236495 6.94615 0.242994 6.96569C0.246184 6.9754 0.249899 6.98577 0.253871 6.99606C0.261905 7.01675 0.270637 7.03647 0.280244 7.05568C0.284707 7.06471 0.289706 7.07417 0.294939 7.08353C0.303531 7.0988 0.312381 7.11331 0.321741 7.12745C0.328344 7.13746 0.335656 7.14788 0.343292 7.15814L0.349241 7.16606C0.367764 7.19026 0.387858 7.21319 0.409371 7.23471L0.410196 7.23534L5.95603 12.7583C6.22507 13.0262 6.66037 13.0253 6.9283 12.7562C7.17187 12.5117 7.19327 12.1297 6.99301 11.8609L6.92629 11.784L2.56201 7.43662L14.6455 7.43607C15.0252 7.43607 15.333 7.12826 15.333 6.74857Z" fill="#222222"/>
</svg>
