<svg width="15" height="15" viewBox="0 0 18 18" fill="none" xmlns="http://www.w3.org/2000/svg">
<path fill-rule="evenodd" clip-rule="evenodd" d="M1.53728 8.72931C1.53728 12.788 4.47995 15.5533 7.78528 16.1253C7.87519 16.1409 7.96116 16.174 8.03826 16.2228C8.11536 16.2716 8.1821 16.3352 8.23466 16.4098C8.28722 16.4844 8.32457 16.5686 8.34458 16.6576C8.36459 16.7466 8.36687 16.8387 8.35128 16.9286C8.3357 17.0186 8.30256 17.1045 8.25375 17.1816C8.20495 17.2587 8.14143 17.3255 8.06684 17.378C7.99224 17.4306 7.90802 17.4679 7.81899 17.4879C7.72996 17.5079 7.63786 17.5102 7.54795 17.4946C3.66662 16.8226 0.147949 13.5506 0.147949 8.72931C0.147949 6.67998 1.07995 5.06931 2.16795 3.84531C2.94795 2.96798 3.83995 2.25464 4.55728 1.70931H2.37595C2.19914 1.70931 2.02957 1.63907 1.90454 1.51405C1.77952 1.38902 1.70928 1.21945 1.70928 1.04264C1.70928 0.865832 1.77952 0.696263 1.90454 0.571239C2.02957 0.446215 2.19914 0.375977 2.37595 0.375977H6.37595C6.55276 0.375977 6.72233 0.446215 6.84735 0.571239C6.97238 0.696263 7.04262 0.865832 7.04262 1.04264V5.04264C7.04262 5.21945 6.97238 5.38902 6.84735 5.51405C6.72233 5.63907 6.55276 5.70931 6.37595 5.70931C6.19914 5.70931 6.02957 5.63907 5.90454 5.51405C5.77952 5.38902 5.70928 5.21945 5.70928 5.04264V2.58131L5.70795 2.58398C4.94528 3.15731 4.01462 3.85998 3.20795 4.76798C2.25462 5.83998 1.53728 7.13598 1.53728 8.72798V8.72931ZM16.3479 9.27064C16.3479 5.25464 13.4679 2.50664 10.2053 1.89331C10.1143 1.87788 10.0274 1.8445 9.9495 1.79511C9.8716 1.74571 9.80432 1.68131 9.75159 1.60564C9.69885 1.52997 9.6617 1.44455 9.64233 1.35438C9.62295 1.2642 9.62172 1.17107 9.63872 1.08041C9.65572 0.989758 9.6906 0.903395 9.74133 0.826364C9.79206 0.749333 9.85762 0.683176 9.93419 0.631752C10.0108 0.580327 10.0968 0.544667 10.1873 0.526849C10.2778 0.509032 10.3709 0.509415 10.4613 0.527977C14.2933 1.24798 17.7373 4.50131 17.7373 9.27064C17.7373 11.32 16.8053 12.9293 15.7173 14.1546C14.9373 15.032 14.0453 15.7453 13.3279 16.2906H15.5093C15.6861 16.2906 15.8557 16.3609 15.9807 16.4859C16.1057 16.6109 16.1759 16.7805 16.1759 16.9573C16.1759 17.1341 16.1057 17.3037 15.9807 17.4287C15.8557 17.5537 15.6861 17.624 15.5093 17.624H11.5093C11.3325 17.624 11.1629 17.5537 11.0379 17.4287C10.9129 17.3037 10.8426 17.1341 10.8426 16.9573V12.9573C10.8426 12.7805 10.9129 12.6109 11.0379 12.4859C11.1629 12.3609 11.3325 12.2906 11.5093 12.2906C11.6861 12.2906 11.8557 12.3609 11.9807 12.4859C12.1057 12.6109 12.1759 12.7805 12.1759 12.9573V15.4173H12.1786C12.9399 14.8413 13.872 14.14 14.6773 13.2306C15.6306 12.16 16.3479 10.864 16.3479 9.27064Z" fill="#222222"/>
</svg>
