<svg width="13" height="12" viewBox="0 0 13 12" fill="none" xmlns="http://www.w3.org/2000/svg">
<path d="M1.19306 11.564C0.946949 11.3179 0.92644 10.9316 1.13153 10.6621L1.19306 10.5917L9.73907 2.04649L3.57713 2.0591C3.19743 2.05992 2.88896 1.75278 2.88815 1.37308C2.8874 1.02791 3.14117 0.741596 3.47259 0.691778L3.57417 0.684105L11.4003 0.667252C11.4504 0.667145 11.4992 0.672387 11.5462 0.682439C11.56 0.685809 11.5741 0.689281 11.5881 0.693207C11.6004 0.696256 11.6126 0.700048 11.6246 0.704164C11.6418 0.710415 11.6593 0.717179 11.6766 0.724686C11.6901 0.730271 11.7027 0.736247 11.715 0.742587C11.7302 0.750604 11.746 0.759484 11.7616 0.769039C11.7726 0.775575 11.7828 0.782244 11.7928 0.789172C11.8075 0.799605 11.8224 0.810798 11.8369 0.822674C11.8481 0.831599 11.8587 0.840882 11.8691 0.850481C11.8752 0.856432 11.8817 0.862643 11.8881 0.869004L11.9066 0.888079C11.9158 0.897993 11.9247 0.908177 11.9333 0.918619L11.8881 0.869004C11.9187 0.899682 11.9459 0.932537 11.9696 0.967072C11.9753 0.975283 11.9809 0.98392 11.9863 0.992688C11.9975 1.01078 12.0076 1.02886 12.0168 1.04727C12.0214 1.05639 12.0262 1.06635 12.0306 1.07644C12.0396 1.09675 12.0473 1.11687 12.0541 1.13724C12.0574 1.14678 12.0605 1.15701 12.0634 1.16733C12.0682 1.1842 12.0722 1.20072 12.0755 1.21734C12.0779 1.22908 12.0801 1.24162 12.082 1.25427L12.0834 1.26408C12.0874 1.29429 12.0894 1.32472 12.0894 1.35514L12.0893 1.35617L12.0731 9.18296C12.0723 9.56266 11.7639 9.86982 11.3842 9.86904C11.039 9.86832 10.7537 9.61335 10.7053 9.28172L10.6981 9.18012L10.71 3.02006L2.16533 11.564C1.89685 11.8325 1.46155 11.8325 1.19306 11.564Z" fill="#222222"/>
</svg>
