<svg width="22" height="22" viewBox="0 0 22 22" fill="none" xmlns="http://www.w3.org/2000/svg">
<path d="M3.66675 10.7484C3.66675 10.4004 3.92539 10.1127 4.26096 10.0672L4.35425 10.0609L16.4396 10.0615L12.0735 5.71326C11.8044 5.44536 11.8035 5.01006 12.0714 4.74099C12.315 4.49639 12.6969 4.47338 12.9664 4.6725L13.0437 4.7389L18.5895 10.2609C18.625 10.2962 18.6558 10.3344 18.6819 10.3748C18.6893 10.3869 18.6968 10.3994 18.704 10.412C18.7105 10.4229 18.7164 10.4342 18.722 10.4456C18.7298 10.4622 18.7374 10.4794 18.7443 10.4969C18.7499 10.5104 18.7545 10.5235 18.7588 10.5367C18.7639 10.5531 18.7688 10.5706 18.773 10.5883C18.7762 10.6007 18.7786 10.6126 18.7808 10.6246C18.7839 10.6424 18.7865 10.6609 18.7883 10.6795C18.7899 10.6937 18.7909 10.7078 18.7914 10.7219C18.7916 10.7305 18.7917 10.7395 18.7917 10.7484L18.7914 10.7751C18.7909 10.7886 18.79 10.8021 18.7886 10.8155L18.7917 10.7484C18.7917 10.7918 18.7877 10.8343 18.78 10.8754C18.7783 10.8853 18.7761 10.8954 18.7738 10.9054C18.7689 10.9261 18.7633 10.946 18.7568 10.9656C18.7536 10.9753 18.7499 10.9856 18.7459 10.9959C18.7379 11.0166 18.7291 11.0363 18.7195 11.0556C18.715 11.0646 18.7101 11.074 18.7048 11.0834C18.6962 11.0987 18.6874 11.1132 18.678 11.1273C18.6714 11.1373 18.6641 11.1478 18.6565 11.158L18.6505 11.1659C18.632 11.1901 18.6119 11.2131 18.5904 11.2346L18.5896 11.2352L13.0437 16.7581C12.7747 17.0261 12.3394 17.0252 12.0715 16.7561C11.8279 16.5115 11.8065 16.1296 12.0067 15.8608L12.0735 15.7839L16.4377 11.4365L4.35425 11.4359C3.97455 11.4359 3.66675 11.1281 3.66675 10.7484Z" fill="#D5A789"/>
</svg>
