<svg width="32" height="32" viewBox="0 0 32 32" fill="none" xmlns="http://www.w3.org/2000/svg">
<path d="M10.1931 20.564C9.94695 20.3179 9.92644 19.9316 10.1315 19.6621L10.1931 19.5917L18.7391 11.0465L12.5771 11.0591C12.1974 11.0599 11.889 10.7528 11.8881 10.3731C11.8874 10.0279 12.1412 9.7416 12.4726 9.69178L12.5742 9.6841L20.4003 9.66725C20.4504 9.66714 20.4992 9.67239 20.5462 9.68244C20.56 9.68581 20.5741 9.68928 20.5881 9.69321C20.6004 9.69626 20.6126 9.70005 20.6246 9.70416C20.6418 9.71041 20.6593 9.71718 20.6766 9.72469C20.6901 9.73027 20.7027 9.73625 20.715 9.74259C20.7302 9.7506 20.746 9.75948 20.7616 9.76904C20.7726 9.77557 20.7828 9.78224 20.7928 9.78917C20.8075 9.79961 20.8224 9.8108 20.8369 9.82267C20.8481 9.8316 20.8587 9.84088 20.8691 9.85048C20.8752 9.85643 20.8817 9.86264 20.8881 9.869L20.9066 9.88808C20.9158 9.89799 20.9247 9.90818 20.9333 9.91862L20.8881 9.869C20.9187 9.89968 20.9459 9.93254 20.9696 9.96707C20.9753 9.97528 20.9809 9.98392 20.9863 9.99269C20.9975 10.0108 21.0076 10.0289 21.0168 10.0473C21.0214 10.0564 21.0262 10.0664 21.0306 10.0764C21.0396 10.0967 21.0473 10.1169 21.0541 10.1372C21.0574 10.1468 21.0605 10.157 21.0634 10.1673C21.0682 10.1842 21.0722 10.2007 21.0755 10.2173C21.0779 10.2291 21.0801 10.2416 21.082 10.2543L21.0834 10.2641C21.0874 10.2943 21.0894 10.3247 21.0894 10.3551L21.0893 10.3562L21.0731 18.183C21.0723 18.5627 20.7639 18.8698 20.3842 18.869C20.039 18.8683 19.7537 18.6133 19.7053 18.2817L19.6981 18.1801L19.71 12.0201L11.1653 20.564C10.8968 20.8325 10.4615 20.8325 10.1931 20.564Z" fill="white"/>
</svg>
