<svg width="1600" height="753" viewBox="0 0 1600 753" fill="none" xmlns="http://www.w3.org/2000/svg">
<rect width="1600" height="753" fill="#2A2D32"/>
<mask id="mask0_2_270" style="mask-type:alpha" maskUnits="userSpaceOnUse" x="8" y="0" width="1592" height="753">
<rect x="8" width="1592" height="753" fill="#2A2D32"/>
</mask>
<g mask="url(#mask0_2_270)">
<path d="M815.993 722.992C819.403 720.088 820.788 716.216 819.616 712.775C817.698 707.397 809.707 704.493 797.986 704.708C777.421 705.031 757.389 709.225 740.127 716.754C720.947 725.143 705.603 737.19 694.521 752.57L694.308 752.892H695.587C716.365 724.068 754.618 706.537 797.986 705.784C809.28 705.569 816.846 708.257 818.551 713.205C819.616 716.109 818.338 719.551 815.248 722.132C797.986 736.652 799.158 746.762 803.207 752.892H804.486L804.272 752.57C798.518 744.288 802.461 734.393 815.993 722.992Z" fill="#35373C"/>
<path d="M1058.72 38.0874C1028.04 31.6341 986.054 22.9222 917.326 1.94916C915.195 1.30383 912.958 0.658509 910.614 0.0131836H906.778L908.482 0.550955C911.573 1.41139 914.45 2.27182 917.007 3.0247C985.734 23.9978 1027.82 32.7097 1058.51 39.1629L1065.65 40.6687L1065.86 40.7762V39.7007L1058.72 38.0874Z" fill="#35373C"/>
<path d="M1040.08 20.3409C1010.88 14.3179 977.956 7.32687 951.85 0.0131836H948.121L949.612 0.550955C976.038 8.07975 1009.92 15.1783 1039.76 21.4165C1048.81 23.3524 1057.34 25.0733 1065.54 26.9017H1065.65V25.8262C1057.66 23.9978 1049.13 22.2769 1040.08 20.3409Z" fill="#35373C"/>
<path d="M256.902 190.814C279.812 176.832 301.549 163.603 320.515 154.138C402.243 113.375 437.512 129.615 452.643 150.481C474.38 180.489 465.962 229.641 452.11 311.059C450.938 317.835 449.766 324.719 448.594 331.925C448.274 333.538 447.954 335.474 447.635 337.733C442.733 365.267 429.84 438.189 453.495 451.095C454.88 451.848 456.266 452.278 457.651 452.278C458.61 452.278 459.569 452.063 460.528 451.74C470.65 447.868 479.494 423.131 489.724 394.522C502.723 358.061 518.813 312.78 543.321 296.325C554.828 288.581 576.139 283.203 596.704 277.933C602.458 276.427 608.319 274.921 613.86 273.415C625.794 270.189 643.162 264.273 657.014 250.829C668.202 240.074 678.645 227.92 687.915 217.165C694.841 209.206 701.341 201.677 707.095 195.761L711.144 191.674C736.717 165.969 756.855 145.641 778.379 133.487C812.37 114.343 839.115 107.997 884.401 108.32C887.065 108.32 890.368 108.427 894.204 108.535C919.671 109.18 966.981 110.363 978.915 95.6284C981.579 92.4018 982.324 88.5298 981.259 84.1201C974.226 54.1125 899.958 54.9729 860.107 55.4031C846.255 55.5107 832.935 56.3711 821.321 57.0164C793.936 58.6297 772.412 59.9204 763.249 52.0689C754.724 44.7552 758.773 33.1394 761.97 23.7822C764.101 17.6516 765.913 12.2739 763.888 9.26235C759.093 2.05622 746.413 2.48643 730.75 10.4454C693.669 29.1599 685.038 83.5823 676.727 136.176C674.915 147.362 673.104 158.978 670.973 169.841C658.825 233.083 643.908 257.605 584.131 269.221C546.091 276.535 520.411 291.485 503.363 316.007C501.977 318.05 500.486 320.309 499.1 322.568C493.453 331.71 487.593 341.067 480.773 337.41C470.437 331.71 475.872 291.807 478.749 270.404C479.281 266.747 479.708 263.736 479.921 261.262C480.24 258.143 480.667 255.024 481.093 251.905C484.396 224.263 487.912 195.654 482.052 167.797C476.511 141.446 464.896 122.947 447.315 112.837C423.234 98.9626 388.39 100.146 340.761 116.386C293.664 132.412 250.722 158.117 209.166 182.962C196.166 190.706 182.741 198.773 169.421 206.302C118.488 235.126 63.1865 253.088 0.212891 261.262V262.337H0.319445C63.5062 254.163 118.914 236.094 169.741 207.162C183.06 199.526 196.486 191.567 209.486 183.715C251.042 158.87 293.983 133.272 340.867 117.247C388.284 101.114 422.807 99.9305 446.569 113.59C463.831 123.592 475.445 141.877 480.88 167.905C486.634 195.654 483.224 224.156 479.921 251.69C479.494 254.809 479.175 257.928 478.749 261.047C478.429 263.52 478.003 266.64 477.576 270.189C474.38 293.421 469.159 332.248 480.134 338.271C487.912 342.465 493.986 332.678 499.953 323.106C501.445 320.739 502.723 318.588 504.108 316.652C520.944 292.345 546.411 277.61 584.237 270.296C644.654 258.573 659.678 233.943 671.932 170.056C674.063 159.193 675.874 147.577 677.686 136.391C685.997 84.0125 694.628 29.9128 731.176 11.521C746.413 3.88464 758.56 3.23931 763.036 10.0152C764.74 12.5965 763.036 17.6516 761.011 23.5671C757.708 33.2469 753.552 45.293 762.609 53.0369C772.093 61.1035 792.764 59.9204 821.427 58.3071C833.148 57.6617 846.361 56.8013 860.213 56.6938C899.745 56.2635 973.48 55.4031 980.3 84.5503C981.259 88.6374 980.513 92.1866 978.169 95.1982C966.554 109.61 919.564 108.427 894.311 107.782C890.475 107.674 887.171 107.567 884.508 107.567C883.442 107.567 882.483 107.567 881.524 107.567C837.837 107.567 811.411 114.128 777.953 132.842C756.323 144.996 736.077 165.431 710.504 191.244L706.455 195.331C700.595 201.247 694.095 208.775 687.275 216.734C678.005 227.49 667.563 239.643 656.481 250.291C642.736 263.52 625.474 269.328 613.753 272.555C608.319 274.061 602.352 275.567 596.598 277.072C575.926 282.342 554.615 287.72 542.894 295.572C518.067 312.243 501.871 357.738 488.871 394.306C478.749 422.701 470.011 447.223 460.315 450.88C458.29 451.633 456.266 451.525 454.134 450.342C431.225 437.866 444.012 365.374 448.807 338.163C449.233 335.904 449.553 333.969 449.872 332.355C451.044 325.149 452.323 318.266 453.389 311.49C467.347 229.748 475.765 180.489 453.815 150.051C438.471 128.863 402.775 112.299 320.409 153.385C301.442 162.85 279.705 176.079 256.689 190.061C186.79 232.33 100.161 285.139 0.212891 292.237V293.313C100.481 286.107 187.216 233.298 256.902 190.814Z" fill="#35373C"/>
<path d="M203.945 156.182C219.182 148.545 235.059 140.694 252.321 132.305C379.227 71.2139 427.603 75.7312 455.733 86.4866C491.109 100.038 507.838 136.177 505.494 193.826C504.748 212.863 501.764 230.502 499.42 244.699C495.797 266.747 493.347 281.375 501.125 285.032C501.764 285.354 502.51 285.462 503.256 285.462C506.027 285.462 509.436 283.526 514.338 280.622C521.157 276.642 530.428 271.265 544.812 266.747C558.771 262.445 569.107 260.402 579.229 258.573C588.393 256.852 597.024 255.132 607.893 251.905C646.572 240.289 653.391 183.285 659.998 128.11C662.661 105.846 665.432 82.9373 670.227 63.0398C676.087 38.7325 682.374 19.0501 693.988 2.05655C694.415 1.41123 694.841 0.765901 695.267 0.120575L695.48 -0.202087H694.202C693.882 0.335684 693.456 0.873455 693.136 1.41123C681.415 18.6199 675.128 38.4099 669.161 62.8247C664.366 82.7222 661.596 105.739 658.932 128.003C652.326 182.855 645.613 239.536 607.573 250.829C596.704 254.056 588.073 255.669 579.016 257.498C568.894 259.434 558.558 261.37 544.493 265.779C530.001 270.297 520.625 275.782 513.805 279.762C507.838 283.203 504.215 285.354 501.551 284.064C494.519 280.73 496.969 265.672 500.379 244.914C502.723 230.717 505.707 213.078 506.453 193.933C508.797 135.746 491.855 99.178 456.053 85.5186C427.816 74.6556 379.014 70.1384 251.788 131.337C234.526 139.618 218.649 147.577 203.412 155.214C132.021 190.814 80.555 216.52 0.106445 224.264V225.339C80.8747 217.595 132.554 191.782 203.945 156.182Z" fill="#35373C"/>
<path d="M120.939 296.97C153.012 284.279 185.085 266.963 218.969 244.053C223.338 241.149 228.133 237.815 233.247 234.374C284.926 198.881 371.448 139.618 413.431 154.999C462.339 172.96 449.02 236.417 424.832 351.5L424.086 355.265C409.595 423.992 405.119 470.24 410.447 496.483C413.644 512.079 420.463 522.511 429.84 525.63C431.865 526.383 433.996 526.706 436.127 526.706C441.668 526.706 447.208 524.447 452.217 520.038C475.658 499.387 485.355 465.723 495.478 430.015L496.117 427.756C510.502 377.206 528.083 335.69 541.829 319.341C556.427 302.025 577.951 295.572 598.729 290.517C603.843 289.226 608.745 288.151 613.433 287.075C646.465 279.331 670.44 273.738 693.882 250.722C705.709 239.106 716.152 227.49 726.274 216.304C761.331 177.477 791.699 143.813 856.697 134.778C878.967 131.659 899.958 131.552 920.31 131.552C947.694 131.444 973.48 131.337 999.799 124.023C1014.5 119.936 1023.77 113.698 1028.04 105.201C1032.83 95.6287 1031.23 82.9373 1023.77 72.7196C1018.02 64.8682 1009.5 58.63 996.709 52.9296C976.251 43.7875 953.981 39.5929 932.457 35.5059L848.173 19.3727C836.025 17.0065 823.878 12.9195 813.862 7.75687C809.706 5.60579 806.51 3.13204 804.485 0.335632H803.207L803.42 0.658295C805.551 3.66981 808.961 6.46622 813.436 8.72486C823.558 13.995 835.812 18.0821 848.066 20.4483L932.35 36.5814C953.768 40.6685 976.038 44.9706 996.39 54.0052C1008.96 59.598 1017.38 65.7286 1023.03 73.4725C1030.17 83.2599 1031.77 95.5211 1027.18 104.771C1023.03 113.052 1013.97 119.075 999.586 123.055C973.374 130.369 947.588 130.476 920.31 130.584C899.958 130.691 878.967 130.691 856.59 133.918C791.166 143.06 760.798 176.832 725.528 215.874C715.406 227.06 704.963 238.676 693.136 250.292C669.907 273.093 646.145 278.686 613.22 286.322C608.532 287.398 603.63 288.581 598.516 289.764C577.631 294.819 555.894 301.272 541.083 318.911C527.231 335.367 509.649 377.098 495.158 427.756L494.519 430.015C484.396 465.615 474.806 499.172 451.577 519.5C444.971 525.308 437.192 527.244 430.16 524.878C421.209 521.758 414.496 511.756 411.406 496.483C406.185 470.348 410.554 424.314 424.939 355.695L425.684 351.93C449.979 236.202 463.405 172.422 413.537 154.138C371.022 138.543 284.287 198.02 232.395 233.621C227.28 237.17 222.485 240.397 218.117 243.301C142.783 294.174 73.5223 319.234 0.212891 322.03V323.106C40.4904 321.6 81.0877 312.781 120.939 296.97Z" fill="#35373C"/>
<path d="M1065.65 157.257C1040.5 160.914 998.201 160.484 944.604 159.839C934.801 159.731 924.785 159.624 914.449 159.516C875.237 159.193 838.37 167.367 813.223 181.887C792.125 194.041 772.945 212.54 754.405 230.502C736.504 247.818 717.963 265.78 697.824 277.61C676.94 289.979 652.965 294.819 629.736 299.552C598.622 305.897 569.213 311.92 548.861 334.614C527.444 358.599 516.682 398.179 505.174 440.125C500.805 456.258 496.223 472.929 491.002 488.524C480.667 519.607 459.356 562.306 438.791 583.602C426.111 596.724 413.005 603.285 402.136 601.886C394.464 600.918 387.858 596.078 383.169 587.904C366.547 558.972 383.702 466.261 400.325 376.56C401.39 371.075 403.308 362.793 405.546 353.114C416.201 307.726 436.127 223.188 414.07 193.288C407.783 184.791 399.152 179.951 388.284 178.661C356.531 175.004 309.753 204.259 279.385 230.287C276.508 232.76 273.525 235.342 270.648 237.923C233.78 269.974 192.011 306.22 115.611 320.525C62.5472 330.527 20.6713 345.585 0.212891 353.759V354.942L0.425999 354.834C20.6713 346.66 62.6537 331.603 115.824 321.6C192.437 307.188 234.313 270.835 271.287 238.783C274.271 236.202 277.148 233.728 280.025 231.255C310.18 205.334 356.637 176.294 388.177 179.844C398.726 181.027 407.144 185.759 413.218 194.041C435.061 223.511 415.136 307.726 404.48 353.006C402.243 362.578 400.218 370.968 399.259 376.453C382.637 466.368 365.375 559.295 382.317 588.55C387.218 597.046 394.038 602.101 402.136 603.069C403.095 603.177 404.16 603.285 405.226 603.285C415.775 603.285 427.922 596.724 439.75 584.463C460.528 563.059 481.839 520.145 492.281 488.954C497.502 473.252 502.084 456.581 506.453 440.448C517.854 398.609 528.723 359.137 549.927 335.367C570.066 312.888 599.262 306.865 630.162 300.627C653.498 295.895 677.579 290.947 698.57 278.578C718.816 266.64 737.356 248.678 755.364 231.255C773.798 213.401 792.871 194.901 813.969 182.855C839.009 168.443 875.77 160.269 914.662 160.699C924.998 160.807 935.014 160.914 944.817 161.022C998.414 161.667 1040.72 162.097 1065.97 158.44L1065.65 157.257Z" fill="#35373C"/>
<path d="M1065.65 186.942C1030.49 192.213 995.964 193.181 959.416 194.256C945.35 194.686 930.859 195.116 916.048 195.762C876.836 197.59 844.55 205.979 820.042 220.714C797.879 234.051 781.683 248.786 765.913 262.983C748.225 279.009 731.389 294.174 709.652 303.101C691.751 310.415 671.186 314.071 651.154 317.728C614.073 324.397 575.82 331.388 555.574 361.395C541.936 381.615 531.067 414.742 517.215 456.581C510.395 477.339 502.617 501.001 493.453 525.953C481.945 557.574 463.298 594.358 443.799 624.258C412.579 672.012 386.046 692.447 362.605 686.532C317.319 675.131 342.785 546.604 352.375 498.312C353.547 492.289 354.506 487.449 355.039 484.222C359.408 458.409 367.186 427.971 375.391 395.598C390.735 335.26 406.611 272.771 401.284 236.31C399.046 220.822 391.161 209.851 379.12 205.119C359.088 197.375 330.105 208.023 297.606 235.234C281.304 248.894 268.943 262.661 257.009 276.105C238.149 297.293 220.248 317.298 190.519 331.28C170.807 340.53 144.488 343.326 118.915 346.123C102.186 347.951 86.4156 349.564 72.3504 353.006C40.0644 360.75 13.2127 376.453 0 385.165V386.455L0.319663 386.24C13.4259 377.528 40.2775 361.718 72.5635 353.974C86.6287 350.64 102.399 348.919 119.021 347.198C144.594 344.509 171.126 341.605 190.945 332.248C220.887 318.159 238.788 298.046 257.755 276.75C269.689 263.413 282.049 249.539 298.246 235.987C330.425 209.099 358.982 198.451 378.694 206.087C390.309 210.604 397.981 221.36 400.112 236.417C405.439 272.771 389.563 335.045 374.219 395.275C366.014 427.541 358.236 458.087 353.867 483.9C353.334 487.126 352.375 491.859 351.203 497.882C341.507 546.496 315.827 675.776 362.178 687.392C364.949 688.145 367.826 688.468 370.596 688.468C380.932 688.468 391.587 683.843 403.095 674.486C415.988 663.945 429.521 647.705 444.545 624.688C464.151 594.68 482.798 557.897 494.306 526.168C503.469 501.216 511.141 477.661 518.067 456.796C531.813 414.957 542.681 381.938 556.214 361.826C576.246 332.141 612.581 325.58 651.047 318.589C671.079 314.932 691.751 311.275 709.759 303.961C731.709 295.034 748.544 279.762 766.339 263.629C782.002 249.431 798.199 234.804 820.255 221.467C844.55 206.84 876.623 198.451 915.728 196.622C930.539 195.977 945.137 195.547 959.096 195.116C995.644 194.041 1030.17 193.073 1065.33 187.803L1065.65 186.942Z" fill="#35373C"/>
<path d="M1065.76 224.264C988.505 231.685 963.571 232.976 941.621 234.051C934.908 234.374 928.515 234.697 921.056 235.235C894.418 236.955 876.836 238.354 852.222 246.205C822.067 255.777 805.977 271.158 776.675 299.122C772.519 303.101 768.044 307.403 763.249 311.921C733.414 340.1 697.185 342.789 662.129 345.37C622.171 348.382 584.344 351.178 564.206 393.769C552.804 417.969 544.813 444.75 536.395 473.144C522.543 519.715 506.879 572.525 471.184 631.034C424.726 707.075 384.342 738.373 344.064 729.554C290.574 717.83 309.434 617.482 319.663 563.598C320.622 558.542 321.475 553.81 322.221 549.615C324.991 533.697 331.384 509.82 338.736 482.287C354.933 421.196 375.072 345.262 375.924 289.119C376.244 264.167 368.039 244.484 354.507 237.601C346.728 233.729 333.622 232.115 315.081 246.635C299.738 258.681 288.017 276.75 275.55 295.895C253.6 329.667 230.797 364.515 185.938 370.538C168.782 372.796 152.906 373.119 137.668 373.334C95.7925 373.979 56.1543 374.517 0.319824 417.646V419.045L0.639487 418.83C56.474 375.7 95.8991 375.055 137.668 374.517C153.012 374.302 168.889 374.087 186.151 371.721C231.436 365.59 254.345 330.528 276.509 296.54C288.976 277.503 300.697 259.434 315.827 247.496C330.106 236.203 343.318 233.191 354.08 238.569C367.293 245.237 375.285 264.597 374.858 289.119C374.006 345.047 353.867 420.981 337.671 481.964C330.319 509.605 324.032 533.482 321.155 549.4C320.409 553.487 319.557 558.327 318.598 563.382C308.368 617.59 289.295 718.583 343.851 730.522C348.113 731.49 352.482 731.92 356.851 731.92C375.072 731.92 393.719 723.746 412.472 707.398C431.439 690.942 450.938 666.097 472.143 631.464C507.945 572.74 523.715 519.931 537.46 473.252C545.878 444.965 553.763 418.184 565.165 394.092C585.09 352.038 622.491 349.242 662.129 346.23C697.399 343.649 733.734 340.96 763.888 312.458C768.683 307.941 773.159 303.639 777.314 299.66C806.51 271.803 822.6 256.423 852.435 246.958C876.943 239.214 894.418 237.708 921.056 236.095C928.515 235.665 934.908 235.342 941.621 234.912C963.571 233.836 988.505 232.546 1065.76 225.124V224.264Z" fill="#35373C"/>
<path d="M285.352 653.513C289.828 616.944 295.368 571.341 313.483 517.026C314.015 515.413 314.655 513.585 315.401 511.326C322.54 490.245 339.162 440.878 348.646 394.522C360.473 336.766 357.49 302.348 339.802 292.238C309.753 275.03 281.516 323.106 264.681 351.823C260.951 358.061 257.755 363.547 255.197 367.203C232.501 399.685 207.781 407.751 157.274 399.039C127.013 393.877 101.866 394.952 78.2107 402.696C50.0803 411.731 24.6138 429.908 0.212891 458.194V459.808L0.639108 459.377C57.7522 392.801 114.226 392.694 157.061 400.115C183.806 404.74 203.412 404.31 218.756 398.932C233.034 393.877 244.649 384.305 256.05 367.849C258.607 364.084 261.804 358.707 265.533 352.361C282.156 323.967 310.073 276.535 339.162 293.206C366.121 308.694 357.809 381.938 314.335 511.003C313.589 513.155 312.95 515.09 312.417 516.704C294.303 571.234 288.762 616.837 284.287 653.405C278.853 698.47 274.803 730.952 251.362 752.57L250.829 753H252.427C275.869 731.059 279.918 698.47 285.352 653.513Z" fill="#35373C"/>
<path d="M267.132 653.513C272.14 615.546 282.156 580.268 292.705 543.054C305.598 497.667 318.917 450.665 323.499 395.92C324.564 383.229 325.31 369.785 321.581 356.986C320.515 353.436 317.425 345.047 310.393 344.294C302.614 343.434 297.713 352.146 294.729 358.814C280.984 388.929 263.615 410.01 242.944 421.411C223.125 432.381 197.978 426.358 173.683 420.658C166.651 418.937 159.938 417.431 153.438 416.248C88.9727 404.74 63.2931 430.123 33.5644 459.485C20.2451 472.284 3.08986 493.149 0.212891 496.591V498.312L0.639108 497.774C0.852217 497.559 19.9254 474.22 34.2037 460.13C63.7193 430.983 89.1858 405.815 153.118 417.216C159.618 418.399 166.331 420.012 173.364 421.626C197.871 427.434 223.231 433.457 243.37 422.271C264.148 410.763 281.73 389.575 295.582 359.137C298.459 352.791 303.147 344.509 310.18 345.262C316.573 346.015 319.556 353.867 320.515 357.201C324.245 369.785 323.499 383.121 322.433 395.705C317.745 450.343 304.532 497.236 291.639 542.624C281.09 579.946 271.074 615.223 266.066 653.298C259.247 705.354 243.477 734.931 213.535 752.355L212.789 752.785H214.92C244.649 735.254 260.312 705.461 267.132 653.513Z" fill="#35373C"/>
<path d="M257.009 607.587C261.058 590.701 265.107 573.277 270.328 555.638C272.246 549.077 274.058 542.839 275.869 536.709C290.787 486.158 300.696 452.816 292.065 437.436C285.779 426.035 277.894 430.445 266.066 437.006C254.132 443.674 237.829 452.816 213.748 451.203C201.281 450.343 188.921 446.793 175.814 443.029C147.471 434.855 118.169 426.358 85.6695 444.965C47.0968 466.798 8.73724 527.459 0.212891 541.441V543.592L0.639108 542.732C8.09791 530.47 47.0968 468.089 86.2023 445.825C118.382 427.541 147.471 435.93 175.601 443.997C188.814 447.761 201.281 451.418 213.748 452.279C238.042 453.892 254.558 444.75 266.599 437.974C278.213 431.521 285.246 427.541 291.106 437.974C299.418 453.031 289.615 486.158 274.804 536.386C272.992 542.409 271.181 548.755 269.263 555.315C264.148 572.954 259.992 590.486 255.943 607.264C240.919 670.506 227.92 725.036 171.02 752.355L169.741 752.893H172.405C228.985 725.251 241.985 670.721 257.009 607.587Z" fill="#35373C"/>
<path d="M200.002 695.566C214.92 670.184 224.19 637.917 233.567 597.047C237.296 580.914 241.132 566.501 244.649 553.81C253.173 522.297 258.82 501.431 251.042 491.213C245.608 484.115 240.706 484.115 230.797 484.115C219.822 484.115 203.412 484.115 173.47 474.865C141.184 464.863 121.472 464.432 97.9233 473.575C59.2441 488.525 16.942 562.414 0.106445 594.465V596.724L0.532663 595.864C17.0486 564.35 59.4572 489.493 98.243 474.543C121.472 465.616 141.078 465.938 173.044 475.941C203.093 485.298 219.715 485.298 230.69 485.19C240.493 485.19 244.968 485.19 250.083 491.859C257.542 501.646 251.894 522.297 243.477 553.487C240.067 566.179 236.124 580.591 232.395 596.832C212.469 683.628 193.076 726.757 131.062 752.463L129.783 753H132.66C163.135 740.094 184.552 721.81 200.002 695.566Z" fill="#35373C"/>
<path d="M171.446 0.4434L172.511 0.0131836H169.954C107.3 29.8057 20.3517 19.6956 0.319445 15.3934H0.212891V16.469C9.48312 18.5125 32.8185 21.6316 61.4817 21.6316C95.579 21.6316 137.242 17.1143 171.446 0.4434Z" fill="#35373C"/>
<path d="M214.067 0.4434L214.92 0.0131836H212.789C143.102 43.7877 35.9086 33.4625 0.319445 25.8262H0.212891V26.9017C15.1305 30.1284 42.3019 33.7852 74.1616 33.7852C119.128 33.7852 173.151 26.4715 214.067 0.4434Z" fill="#35373C"/>
<path d="M252.001 0.4434L252.427 0.0131836H250.829C176.241 70.031 40.2773 48.0899 0.319445 39.5931H0.212891V40.6687C17.7944 44.3255 53.8097 50.6712 95.0463 50.6712C148.217 50.6712 209.912 40.2385 252.001 0.4434Z" fill="#35373C"/>
<path d="M898.147 749.451C877.049 743.75 858.721 738.803 855.418 728.8C853.713 723.853 855.738 717.722 861.598 710.193C862.984 708.365 863.41 706.644 862.877 704.923C860.959 698.793 846.681 694.383 831.657 689.651C813.649 684.058 795.002 678.25 797.026 669.645C799.158 659.966 811.092 654.265 824.944 647.704C832.189 644.263 839.648 640.713 846.574 636.089C861.066 626.624 869.377 619.418 876.729 613.072C886.958 604.145 895.802 596.509 917.433 586.183C983.283 554.885 1035.6 494.547 1063.73 462.173L1065.76 459.915V458.194L1062.99 461.421C1034.86 493.794 982.644 554.025 917.007 585.215C895.163 595.648 886.319 603.285 875.983 612.212C868.631 618.557 860.426 625.763 845.935 635.121C839.009 639.638 831.55 643.187 824.411 646.629C810.346 653.297 798.199 659.105 795.961 669.323C793.83 679.003 812.903 684.918 831.337 690.619C845.509 695.028 860.107 699.546 861.811 705.138C862.238 706.537 861.918 707.935 860.746 709.441C854.672 717.292 852.648 723.745 854.459 729.015C857.976 739.556 875.557 744.396 897.933 750.419C900.81 751.172 903.687 752.032 906.564 752.785H910.826L908.802 752.247C905.179 751.387 901.663 750.419 898.147 749.451Z" fill="#35373C"/>
<path d="M1065.33 497.129C1063.73 499.065 1062.03 501.108 1060.22 503.367C1045.83 520.791 1024.09 547.249 1009.71 559.941C981.046 585.323 962.825 594.896 937.572 608.125C926.384 614.04 913.597 620.709 897.827 629.743C878.221 641.036 866.926 652.33 864.049 663.193C862.345 669.538 864.156 674.486 865.861 677.39C870.123 684.596 880.033 689.436 889.516 694.168C899.106 698.901 908.163 703.418 909.122 709.441C909.655 712.56 907.95 715.894 904.007 719.766C901.13 722.563 900.065 725.359 900.811 728.263C902.729 736.114 918.179 744.073 947.908 752.785H952.063L950.039 752.248C919.458 743.536 903.688 735.577 901.876 728.048C901.237 725.574 902.196 723.1 904.753 720.519C909.015 716.432 910.72 712.775 910.187 709.226C909.122 702.665 899.852 698.04 889.942 693.2C880.565 688.575 870.762 683.736 866.713 676.745C865.008 673.948 863.41 669.323 865.008 663.3C867.779 652.76 878.967 641.682 898.253 630.604C914.023 621.462 926.81 614.793 937.998 608.985C963.358 595.756 981.685 586.184 1010.35 560.693C1024.84 547.895 1046.58 521.436 1061.07 503.905C1062.77 501.861 1064.37 499.925 1065.76 498.205V496.376L1065.33 497.129Z" fill="#35373C"/>
<path d="M1065.33 542.194C1047.64 571.449 1016.64 599.95 986.374 614.9L982.005 617.052C968.792 623.505 952.383 631.571 935.014 642.004C923.613 648.78 917.753 655.233 916.794 661.687C915.728 669.646 922.121 676.314 928.941 683.52C937.465 692.555 946.309 701.804 940.129 713.958C937.359 719.336 937.039 724.068 938.957 728.37C943.858 739.233 963.358 746.117 991.169 753H996.177L993.513 752.462C968.686 746.439 945.031 739.341 939.916 727.94C938.105 723.96 938.531 719.551 941.088 714.496C947.588 701.697 938.531 692.124 929.687 682.875C923.08 675.884 916.794 669.323 917.859 661.902C918.712 655.771 924.466 649.64 935.547 642.972C952.916 632.539 969.325 624.58 982.431 618.019L986.8 615.868C1017.06 600.918 1047.96 572.524 1065.76 543.484V541.548L1065.33 542.194Z" fill="#35373C"/>
<path d="M1065.33 595.325C1043.06 637.056 1017.06 661.794 998.201 679.863C987.972 689.65 979.98 697.287 975.185 704.923C971.989 710.086 971.349 715.248 973.374 720.411C978.489 733.102 999.48 744.288 1034.32 752.892H1038.27V752.785L1036.67 752.354C991.488 741.491 977.743 728.692 974.226 719.981C972.308 715.141 972.841 710.301 975.931 705.461C980.726 697.932 988.718 690.296 998.841 680.616C1017.7 662.547 1043.49 637.917 1065.76 596.616V594.357L1065.33 595.325Z" fill="#35373C"/>
<path d="M788.396 77.9902C771.027 81.3244 755.79 83.368 749.503 83.1528C740.979 82.8302 739.594 77.2374 738.422 68.633C737.995 65.4064 736.717 63.3629 734.586 62.61C730.217 61.1042 723.611 65.514 719.242 69.8161C710.398 78.528 701.767 97.6727 697.611 117.355C695.693 126.605 686.53 172.853 693.456 179.414C693.988 179.952 694.734 180.274 695.48 180.274C695.8 180.274 696.12 180.274 696.439 180.167C702.193 178.553 708.16 171.67 716.578 162.205C726.807 150.589 740.872 134.671 762.396 119.184C788.396 100.362 814.501 94.3385 824.518 92.6176C827.501 92.0798 830.485 91.7572 833.468 91.327C842.312 90.1439 849.877 89.1759 852.328 85.6266C853.074 84.551 853.287 83.1528 852.968 81.6471C850.41 71.4294 818.551 72.0748 788.396 77.9902ZM851.476 84.9813C849.345 88.1003 841.566 89.1759 833.362 90.2514C830.378 90.6816 827.288 91.0043 824.411 91.5421C814.288 93.2629 788.076 99.3935 761.864 118.323C740.233 133.918 726.168 149.836 715.939 161.56C707.734 170.917 701.767 177.693 696.333 179.199C695.587 179.414 694.947 179.306 694.415 178.769C689.62 174.251 693.243 144.889 698.89 117.785C702.939 98.2104 711.463 79.3884 720.201 70.7841C724.676 66.3744 730.75 62.5024 734.479 63.7931C736.184 64.4384 737.249 66.1593 737.676 68.9557C738.635 76.3769 739.7 84.0133 749.716 84.4435C756.11 84.6586 771.453 82.6151 788.822 79.2809C822.919 72.6125 850.091 73.7956 852.115 82.0773C852.115 83.0453 852.009 84.1208 851.476 84.9813Z" fill="#35373C"/>
<path d="M1065.76 322.03C1029.95 323.429 977.423 340.637 940.768 376.023C929.687 386.778 918.925 399.147 907.63 412.161C877.475 447.008 846.255 482.931 800.756 496.913C716.578 522.619 695.161 545.313 666.498 590.701C650.514 615.976 641.351 640.929 633.253 662.87C625.261 684.596 618.335 703.31 606.827 718.368C599.901 727.51 593.295 731.166 587.221 729.338C573.689 725.143 565.91 695.781 564.205 668.57C563.353 654.588 557.279 530.363 614.179 466.153C635.171 442.491 662.342 429.692 694.948 428.186C705.283 427.649 714.767 427.326 724.037 427.111C791.699 424.852 828.886 423.561 880.246 363.869C926.703 309.984 1000.12 297.938 1065.76 293.206V292.13C999.8 296.755 926.171 308.909 879.5 363.116C828.46 422.378 791.379 423.669 724.037 425.928C714.873 426.25 705.283 426.573 694.948 427.003C662.022 428.617 634.531 441.415 613.433 465.293C591.164 490.353 575.926 527.029 568.148 574.352C560.902 618.342 562.5 657.492 563.246 668.462C564.951 696.104 573.049 725.896 587.008 730.199C588.18 730.521 589.246 730.736 590.418 730.736C595.959 730.736 601.712 726.757 607.786 718.905C619.401 703.74 626.327 684.918 634.318 663.085C642.416 641.144 651.58 616.299 667.457 591.131C696.013 545.851 717.217 523.372 801.076 497.774C846.894 483.792 878.221 447.654 908.483 412.699C919.777 399.684 930.433 387.316 941.621 376.56C978.169 341.283 1030.38 324.181 1065.97 322.891L1065.76 322.03Z" fill="#35373C"/>
<path d="M1065.65 261.262C1009.82 268.468 968.046 274.061 945.883 278.256C907.417 285.462 879.819 297.4 853.5 318.266C844.337 325.58 836.238 334.399 828.46 342.896C817.378 355.049 805.87 367.741 790.953 375.807C769.003 387.853 744.921 388.499 721.479 389.144C712.422 389.359 703.152 389.682 693.988 390.542C655.629 394.307 623.236 410.332 597.557 438.081C576.565 460.883 559.836 491.858 548.009 530.04C527.124 597.369 527.018 667.172 527.018 690.081V692.555C526.911 715.141 527.444 734.823 528.616 752.785H529.682C528.509 734.931 527.977 715.141 528.083 692.555V690.081C528.083 667.172 528.19 597.584 548.968 530.363C575.393 445.072 624.195 398.394 694.095 391.51C703.152 390.65 712.529 390.327 721.479 390.112C744.921 389.467 769.216 388.822 791.379 376.668C806.403 368.386 818.018 355.802 829.206 343.541C836.984 335.044 844.976 326.225 854.14 319.019C880.352 298.261 907.843 286.43 946.096 279.224C968.153 275.029 1009.92 269.436 1065.65 262.23V261.262Z" fill="#35373C"/>
<path d="M1065.54 353.759C1063.63 354.512 1061.49 355.372 1059.47 356.125C1040.5 363.654 1016.85 372.903 987.439 392.801C968.153 405.815 952.276 423.454 935.547 442.061C920.736 458.516 905.393 475.618 886.426 490.89C865.967 507.454 843.591 518.639 819.829 530.47C774.331 553.164 727.34 576.719 686.423 641.036C667.883 670.183 652.752 696.857 640.179 752.462V752.57H641.244C653.818 697.179 668.948 670.613 687.382 641.574C728.193 577.471 775.077 554.025 820.362 531.331C844.124 519.5 866.607 508.207 887.172 491.643C906.245 476.263 921.589 459.162 936.4 442.706C953.129 424.099 968.899 406.568 988.079 393.554C1017.49 373.764 1041.04 364.407 1059.9 356.985C1061.92 356.232 1063.84 355.372 1065.76 354.619V353.436L1065.54 353.759Z" fill="#35373C"/>
<path d="M1065.44 385.38C1048.49 396.673 1007.58 431.951 947.801 494.44C910.294 533.589 877.262 548.432 842.099 564.135C825.05 571.771 807.469 579.623 788.396 590.701C745.987 615.223 716.258 639.96 695.054 668.57C674.169 696.749 663.94 725.681 656.055 752.677V752.785H657.121C672.891 698.793 694.841 645.876 788.928 591.454C807.895 580.483 825.477 572.631 842.525 564.995C877.688 549.292 910.933 534.342 948.547 495.085C1007.9 433.026 1048.71 397.856 1065.76 386.455V385.165L1065.44 385.38Z" fill="#35373C"/>
<path d="M1065.44 418.076C1040.08 437.436 1011.95 464.755 989.357 486.803C976.464 499.387 965.276 510.25 956.645 517.672C914.023 554.563 872.787 574.46 836.452 591.992C818.231 600.811 800.969 609.093 786.584 618.342C732.348 653.405 687.169 719.228 673.743 752.677L673.637 752.893H674.809C688.235 719.551 733.094 654.158 787.117 619.203C801.395 609.953 818.551 601.671 836.878 592.852C873.32 575.321 914.663 555.423 957.391 518.317C966.022 510.896 977.21 500.033 990.103 487.449C1012.59 465.615 1040.5 438.404 1065.76 419.152V417.754L1065.44 418.076Z" fill="#35373C"/>
<path d="M545.665 103.911C556.533 144.351 567.189 163.926 580.295 167.26C582.32 167.798 584.238 168.013 586.155 168.013C599.155 168.013 608.852 155.752 615.564 130.799C619.933 114.881 623.236 95.4138 627.179 72.8274C630.908 51.209 635.17 26.6866 641.138 0.228292L641.244 0.0131836H640.072C634.105 26.5791 629.843 51.1014 626.113 72.6123C622.171 95.1987 618.868 114.666 614.499 130.476C606.934 158.333 595.745 169.949 580.508 166.077C568.041 162.958 557.279 143.06 546.73 103.588C537.247 68.2026 532.132 37.2269 529.788 0.0131836H528.723C531.067 37.3345 536.181 68.4177 545.665 103.911Z" fill="#35373C"/>
<path d="M213.428 96.7044C297.286 66.6968 376.456 38.41 443.159 38.1949C477.15 38.0874 499.314 51.4241 515.297 81.5393C525.526 100.899 532.345 121.98 538.952 142.415C548.542 171.992 557.492 199.849 575.287 213.078C580.934 217.273 587.008 219.424 592.868 219.424C594.467 219.424 596.065 219.209 597.663 218.886C603.95 217.595 609.278 213.616 612.687 207.808C624.515 187.157 634.531 126.604 643.268 73.2576C648.49 41.5291 652.965 14.1028 657.121 0.120738V0.0131836H656.055C652.006 14.1028 647.424 41.5291 642.203 73.15C633.465 126.497 623.449 186.835 611.728 207.378C608.532 212.863 603.524 216.627 597.45 217.918C590.418 219.424 582.852 217.38 575.926 212.218C558.451 199.204 549.927 172.745 540.017 142.092C533.411 121.657 526.591 100.469 516.256 81.1091C500.166 50.7788 477.79 37.2269 443.692 37.2269C443.479 37.2269 443.373 37.2269 443.159 37.2269C376.243 37.442 296.967 65.7288 213.002 95.7364C142.25 121.012 69.1536 147.147 0.212891 157.257V158.333H0.319445C69.4732 148.223 142.57 121.98 213.428 96.7044Z" fill="#35373C"/>
<path d="M180.716 134.778C186.257 132.735 194.248 129.4 204.478 125.206C259.033 102.942 372.62 56.4786 436.34 56.156C436.553 56.156 436.766 56.156 436.979 56.156C468.946 56.156 489.404 67.4492 501.232 91.7564C513.805 117.569 521.69 141.769 528.723 163.172C533.837 178.768 538.206 192.212 543.534 203.613C554.402 227.06 573.049 241.579 590.524 241.579C593.934 241.579 597.344 241.042 600.647 239.859C622.064 232.33 631.761 206.517 639.752 170.163C641.457 162.42 643.588 149.19 646.252 132.519C652.645 92.5093 662.235 32.0638 674.915 0.335348L675.128 0.120239H673.956C661.276 31.9563 651.686 92.4017 645.293 132.412C642.736 148.437 640.605 162.204 638.793 169.948C630.802 205.979 621.318 231.469 600.327 238.891C580.828 245.774 557.386 230.716 544.599 203.183C539.378 191.889 535.009 178.445 529.895 162.957C522.862 141.554 514.977 117.247 502.404 91.4338C490.256 66.6963 468.732 54.8653 436.34 55.0804C372.301 55.4031 258.714 101.867 204.051 124.238C193.822 128.432 185.831 131.659 180.29 133.81C116.677 158.01 66.4897 177.047 0.212891 186.942V188.017H0.319445C66.7028 178.015 116.996 158.87 180.716 134.778Z" fill="#35373C"/>
<path d="M715.832 460.775C689.833 463.142 664.26 473.467 647.318 488.309C609.171 521.759 593.188 575.966 594.147 614.793C594.467 625.656 597.131 632.539 601.393 633.292C601.606 633.292 601.819 633.4 602.139 633.4C606.508 633.4 611.303 626.947 615.245 615.546C620.892 599.52 635.917 556.929 668.309 526.706C685.997 510.143 706.775 501.969 723.504 495.515C738.315 489.707 750.036 485.083 754.085 476.909C755.471 474.112 755.364 471.531 753.872 469.38C748.651 461.528 728.086 459.592 715.832 460.775ZM753.126 476.263C749.29 484.115 737.676 488.632 723.078 494.332C706.349 500.893 685.464 509.067 667.563 525.738C635.064 556.176 619.933 598.983 614.286 615.008C610.344 626.301 605.549 632.755 601.606 632.109C597.983 631.571 595.532 624.903 595.319 614.685C594.254 576.073 610.237 522.189 648.064 489.062C664.793 474.327 690.259 464.217 715.939 461.851C718.07 461.636 720.414 461.528 722.758 461.528C734.692 461.528 748.971 464.002 752.913 469.81C754.192 471.638 754.298 473.789 753.126 476.263Z" fill="#35373C"/>
<path d="M78.9566 726.434L79.1697 726.219C118.595 700.083 178.052 660.503 205.543 577.687C210.977 561.446 210.338 547.894 203.625 537.676C195.314 524.77 177.946 517.026 152.053 514.66C113.374 511.003 100.054 524.34 79.9156 548.324C67.9815 562.414 58.8178 579.192 49.8672 595.541C41.9822 609.845 33.8841 624.688 23.7614 638.025C16.7288 647.274 9.48312 655.341 2.55709 663.085L0.212891 665.666V667.279L0.639108 666.849L3.40952 663.838C10.4421 656.094 17.6878 648.027 24.7204 638.777C34.8431 625.333 43.0477 610.491 50.9328 596.186C60.203 579.192 69.047 563.167 80.8745 549.185C100.8 525.523 114.013 512.294 152.159 515.843C177.732 518.209 194.888 525.846 202.986 538.429C209.486 548.432 210.018 561.553 204.691 577.579C177.413 660.073 118.062 699.438 78.7435 725.574L78.5303 725.789C62.4406 736.437 25.4663 748.16 0.532554 741.384L0.212891 741.169V742.245C5.3275 743.643 10.9749 744.181 16.9419 744.181C39.8511 744.181 66.0635 735.038 78.9566 726.434Z" fill="#35373C"/>
<path d="M52.5312 718.798C51.2526 718.798 49.9739 718.69 48.8018 718.368C45.4986 717.507 42.9413 715.248 41.343 711.807C36.0153 700.621 48.1625 683.843 56.1541 672.657C57.4327 670.936 58.6048 669.323 59.4572 667.925C79.9157 637.809 89.7187 614.9 98.4561 594.68C103.358 583.172 108.046 572.201 114.013 561.876C118.488 554.132 124.349 549.185 131.168 547.464C137.242 545.958 143.742 547.249 150.028 551.228C163.241 559.51 167.184 577.687 166.544 590.808C165.799 605.973 158.127 619.633 150.774 631.033C130.849 661.794 104.423 689.113 74.4814 709.978C70.3258 712.775 60.7359 718.798 52.5312 718.798ZM136.283 547.894C134.685 547.894 133.086 548.109 131.488 548.432C124.988 550.045 119.341 554.885 114.972 562.306C109.005 572.632 104.423 583.495 99.4151 595.003C90.6777 615.331 80.8747 638.24 60.4162 668.355C59.4572 669.753 58.2852 671.366 57.0065 673.087C49.1215 683.95 37.2939 700.406 42.302 711.054C43.7938 714.28 46.138 716.216 49.1215 717.077C57.5393 719.335 69.1537 712.129 73.8421 708.903C103.677 688.037 129.996 660.934 149.922 630.281C157.274 618.987 164.84 605.436 165.585 590.593C166.225 577.794 162.389 560.048 149.602 551.981C145.127 549.292 140.652 547.894 136.283 547.894Z" fill="#35373C"/>
<path d="M1065.76 742.245C1054.89 739.126 1037.31 729.338 1033.58 715.033C1031.34 706.429 1034.43 697.825 1042.85 689.22C1044.45 687.607 1045.94 685.994 1047.54 684.488C1053.5 678.358 1059.68 672.119 1065.76 665.666V667.279C1059.68 673.84 1054.36 679.11 1048.28 685.241C1046.68 686.854 1045.19 688.36 1043.59 689.973C1035.5 698.255 1032.41 706.644 1034.54 714.711C1038.16 728.478 1055.42 738.158 1065.65 741.062V742.245H1065.76Z" fill="#35373C"/>
<path d="M1322.45 190.814C1345.36 176.832 1367.09 163.603 1386.06 154.138C1467.79 113.375 1503.06 129.615 1518.19 150.481C1539.92 180.489 1531.51 229.641 1517.65 311.059C1516.48 317.835 1515.31 324.719 1514.14 331.925C1513.82 333.538 1513.5 335.474 1513.18 337.733C1508.28 365.267 1495.38 438.189 1519.04 451.095C1520.42 451.848 1521.81 452.278 1523.19 452.278C1524.15 452.278 1525.11 452.063 1526.07 451.74C1536.19 447.868 1545.04 423.131 1555.27 394.522C1568.27 358.061 1584.36 312.78 1608.86 296.325C1620.37 288.581 1641.68 283.203 1662.25 277.933C1668 276.427 1673.86 274.921 1679.4 273.415C1691.34 270.189 1708.71 264.273 1722.56 250.829C1733.75 240.074 1744.19 227.92 1753.46 217.165C1760.38 209.206 1766.88 201.677 1772.64 195.761L1776.69 191.674C1802.26 165.969 1822.4 145.641 1843.92 133.487C1877.91 114.343 1904.66 107.997 1949.95 108.32C1952.61 108.32 1955.91 108.427 1959.75 108.535C1985.21 109.18 2032.52 110.363 2044.46 95.6284C2047.12 92.4018 2047.87 88.5298 2046.8 84.1201C2039.77 54.1125 1965.5 54.9729 1925.65 55.4031C1911.8 55.5107 1898.48 56.3711 1886.86 57.0164C1859.48 58.6297 1837.96 59.9204 1828.79 52.0689C1820.27 44.7552 1824.32 33.1394 1827.51 23.7822C1829.65 17.6516 1831.46 12.2739 1829.43 9.26235C1824.64 2.05622 1811.96 2.48643 1796.29 10.4454C1759.21 29.1599 1750.58 83.5823 1742.27 136.176C1740.46 147.362 1738.65 158.978 1736.52 169.841C1724.37 233.083 1709.45 257.605 1649.67 269.221C1611.63 276.535 1585.96 291.485 1568.91 316.007C1567.52 318.05 1566.03 320.309 1564.64 322.568C1559 331.71 1553.14 341.067 1546.32 337.41C1535.98 331.71 1541.42 291.807 1544.29 270.404C1544.83 266.747 1545.25 263.736 1545.46 261.262C1545.78 258.143 1546.21 255.024 1546.64 251.905C1549.94 224.263 1553.46 195.654 1547.6 167.797C1542.05 141.446 1530.44 122.947 1512.86 112.837C1488.78 98.9626 1453.93 100.146 1406.3 116.386C1359.21 132.412 1316.27 158.117 1274.71 182.962C1261.71 190.706 1248.28 198.773 1234.97 206.302C1184.25 235.234 1128.94 253.195 1065.97 261.369V262.445H1066.08C1129.26 254.271 1184.67 236.202 1235.5 207.27C1248.82 199.633 1262.24 191.674 1275.24 183.823C1316.8 158.978 1359.74 133.38 1406.62 117.354C1454.04 101.221 1488.56 100.038 1512.33 113.697C1529.59 123.7 1541.2 141.984 1546.64 168.012C1552.39 195.761 1548.98 224.263 1545.68 251.797C1545.25 254.916 1544.93 258.035 1544.51 261.154C1544.19 263.628 1543.76 266.747 1543.33 270.296C1540.14 293.528 1534.92 332.355 1545.89 338.378C1553.67 342.573 1559.74 332.785 1565.71 323.213C1567.2 320.847 1568.48 318.696 1569.87 316.76C1586.7 292.453 1612.17 277.718 1649.99 270.404C1710.41 258.681 1725.43 234.051 1737.69 170.163C1739.82 159.3 1741.63 147.685 1743.44 136.499C1751.75 84.1201 1760.38 30.0203 1796.93 11.6285C1812.17 3.99219 1824.32 3.34687 1828.79 10.1228C1830.5 12.7041 1828.79 17.7591 1826.77 23.6746C1823.46 33.3545 1819.31 45.4006 1828.37 53.1445C1837.85 61.211 1858.52 60.0279 1887.18 58.4146C1898.91 57.7693 1912.12 56.9089 1925.97 56.8013C1965.5 56.3711 2039.24 55.5107 2046.06 84.6578C2047.02 88.7449 2046.27 92.2942 2043.93 95.3057C2032.31 109.718 1985.32 108.535 1960.07 107.89C1956.23 107.782 1952.93 107.674 1950.26 107.674C1949.2 107.674 1948.24 107.674 1947.28 107.674C1903.59 107.674 1877.17 114.235 1843.71 132.95C1822.08 145.103 1801.83 165.539 1776.26 191.352L1772.21 195.439C1766.35 201.354 1759.85 208.883 1753.03 216.842C1743.76 227.597 1733.32 239.751 1722.24 250.399C1708.49 263.628 1691.23 269.436 1679.51 272.663C1674.08 274.168 1668.11 275.674 1662.35 277.18C1641.68 282.45 1620.37 287.828 1608.65 295.679C1583.82 312.35 1567.63 357.846 1554.63 394.414C1544.51 422.808 1535.77 447.331 1526.07 450.987C1524.05 451.74 1522.02 451.633 1519.89 450.45C1496.98 437.973 1509.77 365.482 1514.56 338.271C1514.99 336.012 1515.31 334.076 1515.63 332.463C1516.8 325.257 1518.08 318.373 1519.15 311.597C1533.1 229.856 1541.52 180.596 1519.57 150.158C1504.23 128.97 1468.53 112.407 1386.17 153.493C1367.2 162.957 1345.46 176.186 1322.45 190.169C1252.87 232.545 1166.13 285.354 1066.29 292.453V293.528C1166.02 286.107 1252.76 233.298 1322.45 190.814Z" fill="#35373C"/>
<path d="M1269.49 156.182C1284.73 148.545 1300.6 140.694 1317.86 132.305C1444.77 71.2139 1493.15 75.7312 1521.28 86.4866C1556.65 100.038 1573.38 136.177 1571.04 193.826C1570.29 212.863 1567.31 230.502 1564.96 244.699C1561.34 266.747 1558.89 281.375 1566.67 285.032C1567.31 285.354 1568.05 285.462 1568.8 285.462C1571.57 285.462 1574.98 283.526 1579.88 280.622C1586.7 276.642 1595.97 271.265 1610.36 266.747C1624.31 262.445 1634.65 260.402 1644.77 258.573C1653.94 256.852 1662.57 255.132 1673.44 251.905C1712.12 240.289 1718.94 183.285 1725.54 128.11C1728.21 105.846 1730.98 82.9373 1735.77 63.0398C1741.63 38.7325 1747.92 19.0501 1759.53 2.05655C1759.96 1.41123 1760.38 0.765901 1760.81 0.120575L1761.02 -0.202087H1759.75C1759.43 0.335684 1759 0.873455 1758.68 1.41123C1746.96 18.6199 1740.67 38.4099 1734.71 62.8247C1729.91 82.7222 1727.14 105.739 1724.48 128.003C1717.87 182.855 1711.16 239.536 1673.12 250.829C1662.25 254.056 1653.62 255.669 1644.56 257.498C1634.44 259.434 1624.1 261.37 1610.04 265.779C1595.55 270.297 1586.17 275.782 1579.35 279.762C1573.38 283.203 1569.76 285.354 1567.1 284.064C1560.06 280.73 1562.51 265.672 1565.92 244.914C1568.27 230.717 1571.25 213.078 1572 193.933C1574.34 135.746 1557.4 99.178 1521.6 85.5186C1493.36 74.6556 1444.56 70.1384 1317.33 131.337C1300.07 139.618 1284.19 147.577 1268.96 155.214C1197.56 190.814 1146.1 216.52 1065.65 224.264V225.339C1146.42 217.595 1198.1 191.782 1269.49 156.182Z" fill="#35373C"/>
<path d="M1186.48 296.97C1218.56 284.279 1250.63 266.963 1284.51 244.053C1288.88 241.149 1293.68 237.815 1298.79 234.374C1350.47 198.881 1436.99 139.618 1478.97 154.999C1527.88 172.96 1514.56 236.417 1490.38 351.5L1489.63 355.265C1475.25 423.992 1470.77 470.132 1476.1 496.483C1479.29 512.079 1486.11 522.511 1495.49 525.63C1497.52 526.383 1499.65 526.706 1501.78 526.706C1507.32 526.706 1512.86 524.447 1517.87 520.038C1541.31 499.387 1551.01 465.723 1561.13 430.015L1561.77 427.756C1576.15 377.206 1593.73 335.69 1607.48 319.341C1622.08 302.025 1643.6 295.572 1664.38 290.517C1669.49 289.226 1674.4 288.151 1679.08 287.075C1712.12 279.331 1736.09 273.738 1759.53 250.722C1771.36 239.106 1781.8 227.49 1791.92 216.304C1826.98 177.477 1857.35 143.813 1922.35 134.778C1944.62 131.659 1965.61 131.552 1985.96 131.552C2013.34 131.444 2039.13 131.337 2065.45 124.023C2080.15 119.936 2089.42 113.698 2093.69 105.201C2098.48 95.6287 2096.88 82.9373 2089.42 72.7196C2083.67 64.8682 2075.15 58.63 2062.36 52.9296C2041.9 43.7875 2019.63 39.5929 1998.11 35.5059L1913.82 19.3727C1901.68 17.0065 1889.53 12.9195 1879.51 7.75687C1875.36 5.60579 1872.16 3.13204 1870.14 0.335632H1868.86L1869.07 0.658295C1871.2 3.66981 1874.61 6.46622 1879.09 8.72486C1889.21 13.995 1901.46 18.0821 1913.72 20.4483L1998 36.5814C2019.42 40.6685 2041.69 44.9706 2062.04 54.0052C2074.61 59.598 2083.03 65.7286 2088.68 73.4725C2095.82 83.2599 2097.42 95.5211 2092.83 104.771C2088.68 113.052 2079.62 119.075 2065.24 123.055C2039.02 130.369 2013.24 130.476 1985.96 130.584C1965.61 130.691 1944.62 130.691 1922.24 133.918C1856.82 143.06 1826.45 176.832 1791.18 215.874C1781.06 227.06 1770.61 238.676 1758.79 250.292C1735.56 273.093 1711.8 278.686 1678.87 286.322C1674.18 287.398 1669.28 288.581 1664.17 289.764C1643.28 294.819 1621.54 301.272 1606.73 318.911C1592.88 335.367 1575.3 377.098 1560.81 427.756L1560.17 430.015C1550.05 465.615 1540.46 499.172 1517.23 519.5C1510.62 525.308 1502.84 527.244 1495.81 524.878C1486.86 521.758 1480.15 511.756 1477.06 496.483C1471.84 470.348 1476.2 424.314 1490.59 355.695L1491.34 351.93C1515.63 236.202 1529.06 172.422 1479.19 154.138C1436.67 138.543 1349.94 198.02 1298.05 233.621C1292.93 237.17 1288.14 240.397 1283.77 243.301C1208.22 294.389 1138.96 319.449 1065.65 322.138V323.213C1106.03 321.6 1146.63 312.781 1186.48 296.97Z" fill="#35373C"/>
<path d="M2131.19 157.257C2106.05 160.914 2063.75 160.484 2010.15 159.839C2000.35 159.731 1990.33 159.624 1979.99 159.516C1940.78 159.193 1903.91 167.367 1878.77 181.887C1857.67 194.041 1838.49 212.54 1819.95 230.502C1802.05 247.818 1783.51 265.78 1763.37 277.61C1742.48 289.979 1718.51 294.819 1695.28 299.552C1664.17 305.897 1634.76 311.92 1614.41 334.614C1592.99 358.599 1582.23 398.179 1570.72 440.125C1566.35 456.258 1561.77 472.929 1556.55 488.524C1546.21 519.607 1524.9 562.306 1504.33 583.602C1491.65 596.724 1478.55 603.285 1467.68 601.886C1460.01 600.918 1453.4 596.078 1448.71 587.904C1432.09 558.972 1449.25 466.261 1465.87 376.56C1466.93 371.075 1468.85 362.793 1471.09 353.114C1481.75 307.726 1501.67 223.188 1479.61 193.288C1473.33 184.791 1464.7 179.951 1453.83 178.661C1422.07 175.004 1375.3 204.259 1344.93 230.287C1342.05 232.76 1339.07 235.342 1336.19 237.923C1299.32 269.974 1257.55 306.22 1181.26 320.525C1128.2 330.527 1086.22 345.585 1065.86 353.759V354.942L1066.08 354.834C1086.32 346.66 1128.3 331.603 1181.48 321.6C1258.09 307.188 1299.96 270.835 1336.94 238.783C1339.92 236.202 1342.8 233.728 1345.68 231.255C1375.83 205.334 1422.29 176.294 1453.83 179.844C1464.38 181.027 1472.79 185.759 1478.87 194.041C1500.71 223.511 1480.79 307.726 1470.13 353.006C1467.89 362.578 1465.87 370.968 1464.91 376.453C1448.29 466.368 1431.03 559.295 1447.97 588.55C1452.87 597.046 1459.69 602.101 1467.79 603.069C1468.75 603.177 1469.81 603.285 1470.88 603.285C1481.43 603.285 1493.57 596.724 1505.4 584.463C1526.18 563.059 1547.49 520.145 1557.93 488.954C1563.15 473.252 1567.73 456.581 1572.1 440.448C1583.5 398.609 1594.37 359.137 1615.58 335.367C1635.72 312.888 1664.91 306.865 1695.81 300.627C1719.15 295.895 1743.23 290.947 1764.22 278.578C1784.47 266.64 1803.01 248.678 1821.01 231.255C1839.45 213.401 1858.52 194.901 1879.62 182.855C1904.66 168.443 1941.42 160.269 1980.31 160.699C1990.65 160.807 2000.66 160.914 2010.47 161.022C2064.06 161.667 2106.37 162.097 2131.62 158.44L2131.19 157.257Z" fill="#35373C"/>
<path d="M2131.19 186.942C2096.03 192.213 2061.51 193.181 2024.96 194.256C2010.89 194.686 1996.4 195.116 1981.59 195.762C1942.38 197.59 1910.09 205.979 1885.59 220.714C1863.42 234.051 1847.23 248.786 1831.46 262.983C1813.77 279.009 1796.93 294.174 1775.2 303.101C1757.29 310.415 1736.73 314.071 1716.7 317.728C1679.62 324.397 1641.36 331.388 1621.12 361.395C1607.48 381.615 1596.61 414.742 1582.76 456.581C1575.94 477.339 1568.16 501.001 1559 525.953C1547.49 557.574 1528.84 594.358 1509.34 624.258C1478.12 672.012 1451.59 692.447 1428.15 686.532C1382.86 675.131 1408.33 546.604 1417.92 498.312C1419.09 492.289 1420.05 487.449 1420.58 484.222C1424.95 458.409 1432.73 427.971 1440.93 395.598C1456.28 335.26 1472.16 272.771 1466.83 236.31C1464.59 220.822 1456.7 209.851 1444.66 205.119C1424.63 197.375 1395.65 208.023 1363.15 235.234C1346.85 248.894 1334.49 262.661 1322.55 276.105C1303.69 297.293 1285.79 317.298 1256.06 331.28C1236.35 340.53 1210.03 343.326 1184.46 346.123C1167.73 347.951 1151.96 349.564 1137.89 353.006C1105.61 360.75 1078.76 376.453 1065.54 385.165V386.455L1065.86 386.24C1078.97 377.528 1105.82 361.718 1138.11 353.974C1152.17 350.64 1167.94 348.919 1184.56 347.198C1210.14 344.509 1236.67 341.605 1256.49 332.248C1286.43 318.159 1304.33 298.046 1323.3 276.75C1335.23 263.413 1347.59 249.539 1363.79 235.987C1395.97 209.099 1424.53 198.451 1444.24 206.087C1455.85 210.604 1463.52 221.36 1465.66 236.417C1470.98 272.771 1455.11 335.045 1439.76 395.275C1431.56 427.541 1423.78 458.087 1419.41 483.9C1418.88 487.126 1417.92 491.859 1416.75 497.882C1407.05 546.496 1381.37 675.776 1427.72 687.392C1430.49 688.145 1433.37 688.468 1436.14 688.468C1446.48 688.468 1457.13 683.843 1468.64 674.486C1481.53 663.945 1495.06 647.705 1510.09 624.688C1529.69 594.68 1548.34 557.897 1559.85 526.168C1569.01 501.216 1576.69 477.661 1583.61 456.796C1597.36 414.957 1608.23 381.938 1621.76 361.826C1641.79 332.141 1678.12 325.58 1716.59 318.589C1736.62 314.932 1757.29 311.275 1775.3 303.961C1797.25 295.034 1814.09 279.762 1831.88 263.629C1847.55 249.431 1863.74 234.804 1885.8 221.467C1910.09 206.84 1942.17 198.451 1981.27 196.622C1996.08 195.977 2010.68 195.547 2024.64 195.116C2061.19 194.041 2095.71 193.073 2130.87 187.803L2131.19 186.942Z" fill="#35373C"/>
<path d="M2131.3 224.264C2054.05 231.685 2029.12 232.976 2007.16 234.051C2000.45 234.374 1994.06 234.697 1986.6 235.235C1959.96 236.955 1942.38 238.354 1917.77 246.205C1887.61 255.777 1871.52 271.158 1842.22 299.122C1838.06 303.101 1833.59 307.403 1828.79 311.921C1798.96 340.1 1762.73 342.789 1727.67 345.37C1687.71 348.382 1649.89 351.178 1629.75 393.769C1618.35 417.969 1610.36 444.75 1601.94 473.144C1588.09 519.715 1572.42 572.525 1536.73 631.034C1490.27 707.075 1449.89 738.373 1409.61 729.554C1356.12 717.83 1374.98 617.482 1385.21 563.598C1386.17 558.542 1387.02 553.81 1387.76 549.615C1390.53 533.697 1396.93 509.82 1404.28 482.287C1420.48 421.196 1440.62 345.262 1441.47 289.119C1441.79 264.167 1433.58 244.484 1420.05 237.601C1412.27 233.729 1399.17 232.115 1380.63 246.635C1365.28 258.681 1353.56 276.75 1341.09 295.895C1319.14 329.667 1296.34 364.515 1251.48 370.538C1234.33 372.796 1218.45 373.119 1203.21 373.334C1161.34 373.979 1121.7 374.517 1065.86 417.646V419.045L1066.18 418.83C1122.02 375.7 1161.44 375.055 1203.21 374.517C1218.56 374.302 1234.43 374.087 1251.69 371.721C1296.98 365.59 1319.89 330.528 1342.05 296.54C1354.52 277.503 1366.24 259.434 1381.37 247.496C1395.65 236.203 1408.86 233.191 1419.62 238.569C1432.84 245.237 1440.83 264.597 1440.4 289.119C1439.55 345.047 1419.41 420.981 1403.21 481.964C1395.86 509.605 1389.58 533.482 1386.7 549.4C1385.95 553.487 1385.1 558.327 1384.14 563.382C1373.91 617.59 1354.84 718.583 1409.39 730.522C1413.66 731.49 1418.03 731.92 1422.39 731.92C1440.62 731.92 1459.26 723.746 1478.02 707.398C1496.98 690.942 1516.48 666.097 1537.69 631.464C1573.49 572.74 1589.26 519.931 1603 473.252C1611.42 444.965 1619.31 418.184 1630.71 394.092C1650.63 352.038 1688.03 349.242 1727.67 346.23C1762.94 343.649 1799.28 340.96 1829.43 312.458C1834.23 307.941 1838.7 303.639 1842.86 299.66C1872.05 271.803 1888.14 256.423 1917.98 246.958C1942.49 239.214 1959.96 237.708 1986.6 236.095C1994.06 235.665 2000.45 235.342 2007.16 234.912C2029.12 233.836 2054.05 232.546 2131.3 225.124V224.264Z" fill="#35373C"/>
<path d="M1350.9 653.513C1355.37 616.944 1360.91 571.341 1379.03 517.026C1379.56 515.413 1380.2 513.585 1380.94 511.326C1388.08 490.245 1404.71 440.878 1414.19 394.522C1426.02 336.766 1423.03 302.348 1405.35 292.238C1375.3 275.03 1347.06 323.106 1330.22 351.823C1326.5 358.061 1323.3 363.547 1320.74 367.203C1298.05 399.685 1273.32 407.751 1222.82 399.039C1192.56 393.877 1167.41 394.952 1143.75 402.696C1115.73 411.731 1090.26 429.908 1065.86 458.194V459.808L1066.29 459.377C1123.4 392.801 1179.88 392.694 1222.71 400.115C1249.46 404.74 1269.06 404.31 1284.41 398.932C1298.68 393.877 1310.3 384.305 1321.7 367.849C1324.26 364.084 1327.45 358.707 1331.18 352.361C1347.81 323.967 1375.72 276.535 1404.81 293.206C1431.77 308.694 1423.46 381.938 1379.99 511.003C1379.24 513.155 1378.6 515.09 1378.07 516.704C1359.95 571.234 1354.41 616.837 1349.94 653.405C1344.5 698.47 1340.45 730.952 1317.01 752.57L1316.48 753H1318.08C1341.41 731.059 1345.46 698.47 1350.9 653.513Z" fill="#35373C"/>
<path d="M1332.68 653.513C1337.68 615.546 1347.7 580.268 1358.25 543.055C1371.14 497.667 1384.46 450.665 1389.04 395.92C1390.11 383.229 1390.85 369.785 1387.12 356.986C1386.06 353.436 1382.97 345.047 1375.94 344.294C1368.16 343.434 1363.26 352.146 1360.27 358.814C1346.53 388.929 1329.16 410.01 1308.49 421.411C1288.67 432.381 1263.52 426.358 1239.23 420.658C1232.19 418.937 1225.48 417.431 1218.98 416.248C1154.52 404.74 1128.84 430.123 1099.11 459.485C1086 472.499 1068.74 493.257 1065.86 496.699V498.42L1066.29 497.882C1066.5 497.667 1085.58 474.327 1099.85 460.238C1129.37 431.091 1154.84 405.923 1218.77 417.324C1225.27 418.507 1231.98 420.12 1239.01 421.733C1263.52 427.541 1288.88 433.564 1309.02 422.379C1329.8 410.87 1347.38 389.682 1361.23 359.244C1364.11 352.899 1368.8 344.617 1375.83 345.37C1382.22 346.123 1385.21 353.974 1386.17 357.308C1389.9 369.892 1389.15 383.229 1388.08 395.813C1383.4 450.45 1370.18 497.344 1357.29 542.732C1346.74 580.053 1336.72 615.331 1331.72 653.405C1324.9 705.461 1309.13 735.039 1279.19 752.463L1278.44 752.893H1280.57C1310.19 735.254 1325.86 705.461 1332.68 653.513Z" fill="#35373C"/>
<path d="M1322.55 607.587C1326.6 590.701 1330.65 573.277 1335.87 555.638C1337.79 549.077 1339.6 542.839 1341.41 536.709C1356.33 486.158 1366.24 452.816 1357.61 437.436C1351.32 426.035 1343.44 430.445 1331.61 437.006C1319.68 443.674 1303.37 452.816 1279.29 451.203C1266.83 450.343 1254.46 446.793 1241.36 443.029C1213.02 434.855 1183.71 426.358 1151.21 444.965C1112.64 466.906 1074.17 527.566 1065.65 541.549V543.7L1066.08 542.839C1073.54 530.578 1112.53 468.197 1151.64 445.933C1183.82 427.649 1212.91 436.038 1241.04 444.104C1254.25 447.869 1266.72 451.526 1279.19 452.386C1303.48 453.999 1320 444.857 1332.04 438.081C1343.65 431.628 1350.68 427.649 1356.54 438.081C1364.86 453.139 1355.05 486.266 1340.24 536.493C1338.43 542.517 1336.62 548.862 1334.7 555.423C1329.59 573.062 1325.43 590.593 1321.38 607.372C1306.36 670.614 1293.36 725.144 1236.46 752.462L1235.18 753H1237.84C1294.53 725.251 1307.53 670.721 1322.55 607.587Z" fill="#35373C"/>
<path d="M1265.55 695.566C1280.46 670.184 1289.73 637.917 1299.11 597.047C1302.84 580.914 1306.68 566.501 1310.19 553.81C1318.72 522.297 1324.36 501.431 1316.59 491.213C1311.15 484.115 1306.25 484.115 1296.34 484.115C1285.37 484.115 1268.96 484.115 1239.01 474.865C1206.73 464.863 1187.02 464.432 1163.47 473.575C1124.79 488.525 1082.49 562.414 1065.65 594.465V596.724L1066.08 595.864C1082.59 564.35 1125 489.493 1163.79 474.543C1187.02 465.616 1206.62 465.938 1238.59 475.941C1268.64 485.298 1285.26 485.298 1296.23 485.19C1306.04 485.19 1310.51 485.19 1315.63 491.859C1323.09 501.646 1317.44 522.297 1309.02 553.487C1305.61 566.179 1301.67 580.591 1297.94 596.832C1278.01 683.628 1258.62 726.757 1196.61 752.463L1195.33 753H1198.2C1228.68 740.094 1250.1 721.81 1265.55 695.566Z" fill="#35373C"/>
<path d="M1236.99 0.4434L1238.06 0.0131836H1235.5C1172.84 29.8057 1085.9 19.6956 1065.86 15.3934H1065.76V16.469C1075.03 18.5125 1098.36 21.6316 1127.03 21.6316C1161.12 21.6316 1202.79 17.1143 1236.99 0.4434Z" fill="#35373C"/>
<path d="M1279.61 0.4434L1280.46 0.0131836H1278.33C1208.65 43.7877 1101.35 33.4625 1065.86 25.8262H1065.76V26.9017C1080.67 30.1284 1107.85 33.7852 1139.71 33.7852C1184.67 33.7852 1238.69 26.4715 1279.61 0.4434Z" fill="#35373C"/>
<path d="M1317.54 0.4434L1317.97 0.0131836H1316.37C1241.68 70.031 1105.82 48.0899 1065.86 39.5931H1065.76V40.6687C1083.34 44.3255 1119.35 50.6712 1160.59 50.6712C1213.76 50.6712 1275.46 40.2385 1317.54 0.4434Z" fill="#35373C"/>
<path d="M1278.97 96.7044C1362.83 66.6968 1442 38.41 1508.7 38.1949C1542.69 38.0874 1564.86 51.4241 1580.84 81.5393C1591.07 100.899 1597.89 121.98 1604.5 142.415C1614.09 171.992 1623.04 199.849 1640.83 213.078C1646.48 217.273 1652.55 219.424 1658.41 219.424C1660.01 219.424 1661.61 219.209 1663.21 218.886C1669.49 217.595 1674.82 213.616 1678.23 207.808C1690.06 187.157 1700.08 126.604 1708.81 73.2576C1714.03 41.5291 1718.51 14.1028 1722.66 0.120738V0.0131836H1721.6C1717.55 14.1028 1712.97 41.5291 1707.75 73.15C1699.01 126.497 1688.99 186.835 1677.27 207.378C1674.08 212.863 1669.07 216.627 1662.99 217.918C1655.96 219.424 1648.4 217.38 1641.47 212.218C1624 199.204 1615.47 172.745 1605.56 142.092C1598.96 121.657 1592.14 100.469 1581.8 81.1091C1565.71 50.7788 1543.33 37.2269 1509.24 37.2269C1509.02 37.2269 1508.92 37.2269 1508.7 37.2269C1441.89 37.5496 1362.51 65.8364 1278.65 95.844C1207.9 121.119 1134.8 147.255 1065.86 157.365V158.441H1065.97C1135.02 148.223 1208.11 121.98 1278.97 96.7044Z" fill="#35373C"/>
<path d="M1246.26 134.778C1251.8 132.735 1259.79 129.4 1270.02 125.206C1324.58 102.942 1438.16 56.4786 1501.88 56.156C1502.1 56.156 1502.31 56.156 1502.52 56.156C1534.49 56.156 1554.95 67.4492 1566.78 91.7564C1579.35 117.569 1587.23 141.769 1594.27 163.172C1599.38 178.768 1603.75 192.212 1609.08 203.613C1619.95 227.06 1638.59 241.579 1656.07 241.579C1659.48 241.579 1662.89 241.042 1666.19 239.859C1687.61 232.33 1697.3 206.517 1705.3 170.163C1707 162.42 1709.13 149.19 1711.8 132.519C1718.19 92.5093 1727.78 32.0638 1740.46 0.335348L1740.67 0.120239H1739.5C1726.82 31.9563 1717.23 92.4017 1710.84 132.412C1708.28 148.437 1706.15 162.204 1704.34 169.948C1696.35 205.979 1686.86 231.469 1665.87 238.891C1646.37 245.774 1622.93 230.716 1610.14 203.183C1604.92 191.889 1600.55 178.445 1595.44 162.957C1588.41 141.554 1580.52 117.247 1567.95 91.4338C1556.01 66.9114 1534.49 55.0804 1502.1 55.2956C1438.06 55.6182 1324.47 102.082 1269.81 124.453C1259.58 128.648 1251.59 131.874 1246.05 134.025C1182.43 158.225 1132.25 177.262 1065.97 187.157V188.233H1066.08C1132.25 178.015 1182.54 158.87 1246.26 134.778Z" fill="#35373C"/>
<path d="M1144.5 726.434L1144.71 726.219C1184.14 700.083 1243.6 660.503 1271.09 577.687C1276.52 561.446 1275.88 547.894 1269.17 537.676C1260.86 524.77 1243.49 517.026 1217.6 514.66C1178.92 511.003 1165.6 524.34 1145.46 548.324C1133.53 562.414 1124.36 579.192 1115.41 595.541C1107.53 609.845 1099.43 624.688 1089.31 638.025C1082.27 647.274 1075.03 655.341 1068.1 663.085L1065.76 665.666V667.279L1066.18 666.849L1068.95 663.838C1075.99 656.094 1083.23 648.027 1090.26 638.777C1100.39 625.333 1108.59 610.491 1116.48 596.186C1125.75 579.192 1134.59 563.167 1146.42 549.185C1166.34 525.523 1179.56 512.294 1217.7 515.843C1243.28 518.209 1260.43 525.846 1268.53 538.429C1275.03 548.432 1275.56 561.553 1270.23 577.579C1242.96 660.073 1183.61 699.438 1144.29 725.574L1144.07 725.789C1127.98 736.437 1091.01 748.16 1066.08 741.384L1065.86 741.277V742.352C1070.98 743.75 1076.63 744.288 1082.59 744.288C1105.4 744.181 1131.61 735.038 1144.5 726.434Z" fill="#35373C"/>
<path d="M1118.07 718.798C1116.8 718.798 1115.52 718.69 1114.35 718.368C1111.04 717.507 1108.49 715.248 1106.89 711.807C1101.56 700.621 1113.71 683.843 1121.7 672.657C1122.98 670.936 1124.15 669.323 1125 667.925C1145.35 637.917 1155.26 614.9 1163.89 594.68C1168.79 583.172 1173.48 572.201 1179.45 561.876C1183.93 554.132 1189.79 549.185 1196.61 547.464C1202.68 545.958 1209.18 547.249 1215.47 551.228C1228.68 559.51 1232.62 577.687 1231.98 590.808C1231.24 605.973 1223.56 619.633 1216.21 631.033C1196.29 661.794 1169.86 689.113 1139.92 709.978C1135.87 712.775 1126.28 718.798 1118.07 718.798ZM1201.83 547.894C1200.23 547.894 1198.63 548.109 1197.03 548.432C1190.53 550.045 1184.88 554.885 1180.52 562.306C1174.55 572.632 1169.97 583.495 1164.96 595.003C1156.22 615.331 1146.42 638.24 1125.96 668.355C1125 669.753 1123.83 671.366 1122.55 673.087C1114.67 683.95 1102.84 700.406 1107.85 711.054C1109.34 714.28 1111.68 716.216 1114.67 717.077C1123.08 719.335 1134.7 712.129 1139.39 708.903C1169.22 688.037 1195.54 660.934 1215.47 630.281C1222.82 618.987 1230.38 605.436 1231.13 590.593C1231.77 577.794 1227.93 560.048 1215.15 551.981C1210.67 549.292 1206.2 547.894 1201.83 547.894Z" fill="#35373C"/>
</g>
</svg>
