<svg width="59" height="88" viewBox="0 0 59 88" fill="none" xmlns="http://www.w3.org/2000/svg">
<path d="M22.9744 14.6757H35.3892L29.1547 1L22.9744 14.6757Z" stroke="#D5A789" stroke-width="2" stroke-miterlimit="10" stroke-linecap="round" stroke-linejoin="round"/>
<path d="M57.3994 87H0.909424L5.68017 69.3783C6.11388 67.7567 7.57763 66.6216 9.25823 66.6216H49.0506C50.7312 66.6216 52.195 67.7567 52.6287 69.3783L57.3994 87Z" stroke="#D5A789" stroke-width="2" stroke-miterlimit="10" stroke-linecap="round" stroke-linejoin="round"/>
<path d="M22.9741 14.6757L8.87866 66.6216" stroke="#D5A789" stroke-width="2" stroke-miterlimit="10" stroke-linecap="round" stroke-linejoin="round"/>
<path d="M40.9186 35.1621L35.3889 14.6757" stroke="#D5A789" stroke-width="2" stroke-miterlimit="10" stroke-linecap="round" stroke-linejoin="round"/>
<path d="M49.4301 66.6216L44.063 47.3784" stroke="#D5A789" stroke-width="2" stroke-miterlimit="10" stroke-linecap="round" stroke-linejoin="round"/>
<path d="M25.9016 66.6216V14.6757" stroke="#D5A789" stroke-width="2" stroke-miterlimit="10" stroke-linecap="round" stroke-linejoin="round"/>
<path d="M32.4072 57.054V30.2432" stroke="#D5A789" stroke-width="2" stroke-miterlimit="10" stroke-linecap="round" stroke-linejoin="round"/>
<path d="M32.4072 14.6757V30.2432" stroke="#D5A789" stroke-width="2" stroke-miterlimit="10" stroke-linecap="round" stroke-linejoin="round"/>
<path d="M25.9016 20.4054H28.2328" stroke="#D5A789" stroke-width="2" stroke-miterlimit="10" stroke-linecap="round" stroke-linejoin="round"/>
<path d="M25.9016 26.1892H28.2328" stroke="#D5A789" stroke-width="2" stroke-miterlimit="10" stroke-linecap="round" stroke-linejoin="round"/>
<path d="M25.9016 31.973H28.2328" stroke="#D5A789" stroke-width="2" stroke-miterlimit="10" stroke-linecap="round" stroke-linejoin="round"/>
<path d="M25.9016 37.7567H28.2328" stroke="#D5A789" stroke-width="2" stroke-miterlimit="10" stroke-linecap="round" stroke-linejoin="round"/>
<path d="M25.9016 43.5405H28.2328" stroke="#D5A789" stroke-width="2" stroke-miterlimit="10" stroke-linecap="round" stroke-linejoin="round"/>
<path d="M25.9016 49.3243H28.2328" stroke="#D5A789" stroke-width="2" stroke-miterlimit="10" stroke-linecap="round" stroke-linejoin="round"/>
<path d="M25.9016 55.1081H28.2328" stroke="#D5A789" stroke-width="2" stroke-miterlimit="10" stroke-linecap="round" stroke-linejoin="round"/>
<path d="M25.9016 60.8919H28.2328" stroke="#D5A789" stroke-width="2" stroke-miterlimit="10" stroke-linecap="round" stroke-linejoin="round"/>
<path d="M49.4301 26.2433L32.4072 66.6217" stroke="#D5A789" stroke-width="2" stroke-miterlimit="10" stroke-linecap="round" stroke-linejoin="round"/>
<path d="M52.6828 27.6486L46.2314 24.8919L52.0322 17.3784L54.1465 18.2973L52.6828 27.6486Z" stroke="#D5A789" stroke-width="2" stroke-miterlimit="10" stroke-linecap="round" stroke-linejoin="round"/>
</svg>
