<svg width="101" height="86" viewBox="0 0 101 86" fill="none" xmlns="http://www.w3.org/2000/svg">
<g clip-path="url(#clip0_435_572)">
<path d="M99.1296 1.82983H1.87036V73.1915H99.1296V1.82983Z" fill="white"/>
<path d="M89.7778 73.1915H35.5371" stroke="#D5A789" stroke-width="2" stroke-miterlimit="10"/>
<path d="M99.1297 67.7021V73.1915H93.5186" stroke="#D5A789" stroke-width="2" stroke-miterlimit="10"/>
<path d="M99.1299 10.9788V64.0426" stroke="#D5A789" stroke-width="2" stroke-miterlimit="10"/>
<path d="M93.5186 1.82983H99.1297V7.3192" stroke="#D5A789" stroke-width="2" stroke-miterlimit="10"/>
<path d="M11.2222 1.82983H89.7777" stroke="#D5A789" stroke-width="2" stroke-miterlimit="10"/>
<path d="M1.87036 7.3192V1.82983H7.48147" stroke="#D5A789" stroke-width="2" stroke-miterlimit="10"/>
<path d="M9.35184 73.1915H1.87036V10.9788" stroke="#D5A789" stroke-width="2" stroke-miterlimit="10"/>
<path d="M11.2222 33.1192C10.287 32.2043 9.35181 31.1064 9.35181 29.6426C9.35181 26.7149 13.0925 24.5192 13.0925 21.5915C13.0925 18.6639 7.48144 11.8937 10.1 9.8809C12.3444 7.68516 20.0129 12.9915 23.1925 12.9915C26.3722 12.9915 28.9907 9.14899 32.1703 9.14899C35.35 9.14899 37.9685 12.9915 41.1481 12.9915C44.3277 12.9915 46.9462 9.14899 50.1259 9.14899C53.3055 9.14899 55.924 12.9915 59.1037 12.9915C62.2833 12.9915 64.9018 9.14899 68.0814 9.14899C71.2611 9.14899 73.8796 12.9915 77.0592 12.9915C80.2388 12.9915 89.0296 7.50218 91.087 9.8809C93.3314 11.8937 88.0944 18.8469 88.0944 21.5915C88.0944 24.5192 91.8351 26.8979 91.8351 29.6426C91.8351 32.5703 88.0944 34.583 88.0944 37.5107C88.0944 40.4384 91.8351 42.4511 91.8351 45.3788C91.8351 48.3064 88.0944 50.6852 88.0944 53.4298C88.0944 56.3575 93.3314 63.3107 91.087 65.3235C89.0296 67.3362 80.2388 62.3958 77.0592 62.3958C73.8796 62.3958 71.2611 66.0554 68.0814 66.0554C64.9018 66.0554 62.2833 62.3958 59.1037 62.3958C55.924 62.3958 53.3055 65.8724 50.1259 65.8724C46.9462 65.8724 44.3277 62.2128 41.1481 62.2128H39.2777" stroke="#D5A789" stroke-width="2" stroke-miterlimit="10"/>
<path d="M14.9629 56.7234V84.1703L22.4444 78.6809L29.9259 84.1703V56.7234H14.9629Z" fill="white"/>
<path d="M29.9259 56.7234V84.1703L22.4444 78.6809L14.9629 84.1703V56.7234" stroke="#D5A789" stroke-width="2" stroke-miterlimit="10" stroke-linejoin="round"/>
<path d="M22.4444 58.5532C29.6752 58.5532 35.537 52.8187 35.537 45.7447C35.537 38.6708 29.6752 32.9362 22.4444 32.9362C15.2136 32.9362 9.35181 38.6708 9.35181 45.7447C9.35181 52.8187 15.2136 58.5532 22.4444 58.5532Z" stroke="#D5A789" stroke-width="2" stroke-miterlimit="10" stroke-linejoin="round"/>
<path d="M43.0188 29.2767H72.9447" stroke="#D5A789" stroke-width="2" stroke-miterlimit="10" stroke-linejoin="round"/>
<path d="M43.0188 36.5958H72.9447" stroke="#D5A789" stroke-width="2" stroke-miterlimit="10" stroke-linejoin="round"/>
<path d="M43.0188 43.915H63.5929" stroke="#D5A789" stroke-width="2" stroke-miterlimit="10" stroke-linejoin="round"/>
</g>
<defs>
<clipPath id="clip0_435_572">
<rect width="101" height="86" fill="white"/>
</clipPath>
</defs>
</svg>
