<svg width="95" height="84" viewBox="0 0 95 84" fill="none" xmlns="http://www.w3.org/2000/svg">
<path d="M94 67.0093V46.3707C94 42.9594 91.2688 40.2303 87.8548 40.2303H83.7579C82.9044 40.2303 81.8802 40.5715 81.3681 41.2537L74.8815 48.0764L68.3949 38.5247H27.4267L21.1107 48.0764L14.6241 41.2537C13.9413 40.5715 13.0878 40.2303 12.0636 40.2303H7.96676C4.55275 40.2303 1.82153 42.9594 1.82153 46.3707V67.1799C1.82153 69.5679 3.01644 71.7852 4.72345 73.3203L1.82153 77.7551V82.8721H94V77.7551L91.0981 73.1498C92.8051 71.6147 94 69.3973 94 67.0093Z" fill="white"/>
<path d="M61.567 38.5247V31.3609C61.567 25.9027 52.0077 23.1736 47.0574 23.1736C42.1071 23.1736 32.5479 26.0733 32.5479 31.3609V38.5247" stroke="#D5A789" stroke-width="2" stroke-miterlimit="10"/>
<path d="M90.9271 73.5375C93.3169 72.0024 93.9998 70.0796 93.9998 67.0094V46.3708C93.9998 42.9595 91.2685 40.2304 87.8545 40.2304H83.7577C82.9042 40.2304 81.88 40.5715 81.3679 41.2538L72.3207 50.4644H62.4201C62.4201 50.4644 61.5666 57.2871 68.0532 57.2871C71.8086 57.2871 77.9539 57.2871 77.9539 57.2871L86.3182 48.7588" stroke="#D5A789" stroke-width="2" stroke-miterlimit="10"/>
<path d="M83.758 35.1133C87.5134 35.1133 90.586 31.8726 90.586 27.779V25.391C90.586 21.2974 87.5134 18.0566 83.758 18.0566C80.0025 18.0566 76.9299 21.2974 76.9299 25.391V27.779C76.9299 31.8726 80.0025 35.1133 83.758 35.1133Z" fill="white" stroke="#D5A789" stroke-width="2" stroke-miterlimit="10"/>
<path d="M5.3286 73.5375C2.93879 72.0024 1.82153 70.0796 1.82153 67.0094V46.3708C1.82153 42.9595 4.55275 40.2304 7.96676 40.2304H12.0636C12.9171 40.2304 13.9413 40.5715 14.4534 41.2538L23.3298 50.4644H33.2305C33.2305 50.4644 34.084 57.2871 27.5974 57.2871C23.8419 57.2871 17.6967 57.2871 17.6967 57.2871L9.33237 48.7588" stroke="#D5A789" stroke-width="2" stroke-miterlimit="10"/>
<path d="M13.5999 58.9927L1.82153 77.7551V82.8721H94V77.7551L82.2216 58.9927" stroke="#D5A789" stroke-width="2" stroke-miterlimit="10"/>
<path d="M20.5984 48.7587L27.4264 38.5247H68.3946L75.2227 48.7587" stroke="#D5A789" stroke-width="2" stroke-miterlimit="10"/>
<path d="M12.0634 35.1133C8.30797 35.1133 5.23535 31.8726 5.23535 27.779V25.391C5.23535 21.2974 8.30797 18.0566 12.0634 18.0566C15.8188 18.0566 18.8914 21.2974 18.8914 25.391V27.779C18.8914 31.8726 15.8188 35.1133 12.0634 35.1133Z" fill="white" stroke="#D5A789" stroke-width="2" stroke-miterlimit="10"/>
<path d="M47.911 18.0567C51.6665 18.0567 54.7391 14.8159 54.7391 10.7223V8.33438C54.7391 4.24077 51.6665 1 47.911 1C44.1556 1 41.083 4.24077 41.083 8.33438V10.7223C41.083 14.8159 44.1556 18.0567 47.911 18.0567Z" fill="white" stroke="#D5A789" stroke-width="2" stroke-miterlimit="10"/>
</svg>
